%TF.GenerationSoftware,Altium Limited,Altium Designer,23.10.1 (27)*%
G04 Layer_Color=0*
%FSLAX26Y26*%
%MOIN*%
%TF.SameCoordinates,68AA919C-6303-421A-99F6-747A19599157*%
%TF.FilePolarity,Positive*%
%TF.FileFunction,Plated,1,2,PTH,Drill*%
%TF.Part,Single*%
G01*
G75*
%TA.AperFunction,ComponentDrill*%
%ADD76C,0.031000*%
%ADD77C,0.040157*%
%TA.AperFunction,OtherDrill,Pad Free-28 (815mil,2755mil)*%
%ADD78C,0.031000*%
%TA.AperFunction,OtherDrill,Pad Free-27 (820mil,1680mil)*%
%ADD79C,0.031000*%
%TA.AperFunction,OtherDrill,Pad Free-26 (2430mil,1070mil)*%
%ADD80C,0.031000*%
%TA.AperFunction,OtherDrill,Pad Free-25 (1625mil,1070mil)*%
%ADD81C,0.031000*%
%TA.AperFunction,OtherDrill,Pad Free-24 (1960mil,1355mil)*%
%ADD82C,0.031000*%
%TA.AperFunction,OtherDrill,Pad Free-23 (1840mil,2030mil)*%
%ADD83C,0.031000*%
%TA.AperFunction,OtherDrill,Pad Free-22 (1735mil,2030mil)*%
%ADD84C,0.031000*%
%TA.AperFunction,OtherDrill,Pad Free-21 (1865mil,1200mil)*%
%ADD85C,0.031000*%
%TA.AperFunction,ComponentDrill*%
%ADD86C,0.032000*%
%TA.AperFunction,OtherDrill,Pad Free-20 (1930mil,2270mil)*%
%ADD87C,0.031000*%
%TA.AperFunction,OtherDrill,Pad Free-19 (1935mil,2530mil)*%
%ADD88C,0.031000*%
%TA.AperFunction,ComponentDrill*%
%ADD89C,0.039370*%
%ADD90C,0.078740*%
%TA.AperFunction,OtherDrill,Pad Free-18 (2100mil,2010mil)*%
%ADD91C,0.031000*%
%TA.AperFunction,OtherDrill,Pad Free-17 (2050mil,2220mil)*%
%ADD92C,0.031000*%
%TA.AperFunction,ComponentDrill*%
%ADD93C,0.035000*%
%TA.AperFunction,OtherDrill,Pad Free-16 (2650mil,3060mil)*%
%ADD94C,0.031000*%
%TA.AperFunction,OtherDrill,Pad Free-15 (2650mil,2840mil)*%
%ADD95C,0.031000*%
%TA.AperFunction,OtherDrill,Pad Free-14 (2465mil,2245mil)*%
%ADD96C,0.031000*%
%TA.AperFunction,OtherDrill,Pad Free-13 (2460mil,2955mil)*%
%ADD97C,0.031000*%
%TA.AperFunction,OtherDrill,Pad Free-12 (2465mil,2440mil)*%
%ADD98C,0.031000*%
%TA.AperFunction,OtherDrill,Pad Free-11 (2468.878mil,1648.878mil)*%
%ADD99C,0.031000*%
%TA.AperFunction,OtherDrill,Pad Free-10 (2595mil,1435mil)*%
%ADD100C,0.031000*%
%TA.AperFunction,OtherDrill,Pad Free-9 (2590mil,1070mil)*%
%ADD101C,0.031000*%
%TA.AperFunction,ComponentDrill*%
%ADD102C,0.051968*%
%ADD103C,0.050787*%
%ADD104C,0.036000*%
%ADD105C,0.031000*%
%ADD106C,0.050000*%
%ADD107C,0.051181*%
%TA.AperFunction,OtherDrill,Pad Free-7 (170mil,165mil)*%
%ADD108C,0.078740*%
%TA.AperFunction,OtherDrill,Pad Free-7 (145mil,3760mil)*%
%ADD109C,0.078740*%
%TA.AperFunction,OtherDrill,Pad Free-8 (3750mil,3760mil)*%
%ADD110C,0.078740*%
%TA.AperFunction,OtherDrill,Pad Free-7 (3745mil,130mil)*%
%ADD111C,0.078740*%
%TA.AperFunction,ViaDrill,NotFilled*%
%ADD112C,0.030000*%
%ADD113C,0.028000*%
D76*
X2289000Y355000D02*
D03*
X2560000Y543000D02*
D03*
Y355000D02*
D03*
X2289000Y543000D02*
D03*
X3169000Y355000D02*
D03*
X3440000Y543000D02*
D03*
Y355000D02*
D03*
X3169000Y543000D02*
D03*
X2729000D02*
D03*
X3000000Y355000D02*
D03*
Y543000D02*
D03*
X2729000Y355000D02*
D03*
X2320000Y3425000D02*
D03*
Y3325000D02*
D03*
X2020000D02*
D03*
Y3425000D02*
D03*
X2045000Y2630000D02*
D03*
Y2530000D02*
D03*
X2345000D02*
D03*
Y2630000D02*
D03*
X2005000Y2350000D02*
D03*
X2355000D02*
D03*
X1980000Y3150000D02*
D03*
X2330000D02*
D03*
D77*
X1720826Y1585000D02*
D03*
X1620826D02*
D03*
X1520826D02*
D03*
X1420826D02*
D03*
X1320826D02*
D03*
X1220826D02*
D03*
X1120826D02*
D03*
X1020826D02*
D03*
X920826D02*
D03*
X820826D02*
D03*
X720826D02*
D03*
X620826D02*
D03*
X520826D02*
D03*
X420826D02*
D03*
X320826D02*
D03*
X1720826Y585000D02*
D03*
X1620826D02*
D03*
X1520826D02*
D03*
X1420826D02*
D03*
X1320826D02*
D03*
X1220826D02*
D03*
X1120826D02*
D03*
X1020826D02*
D03*
X920826D02*
D03*
X820826D02*
D03*
X720826D02*
D03*
X620826D02*
D03*
X520826D02*
D03*
X420826D02*
D03*
X320826D02*
D03*
D78*
X815000Y2755000D02*
D03*
D79*
X820000Y1680000D02*
D03*
D80*
X2430000Y1070000D02*
D03*
D81*
X1625000D02*
D03*
D82*
X1960000Y1355000D02*
D03*
D83*
X1840000Y2030000D02*
D03*
D84*
X1735000D02*
D03*
D85*
X1865000Y1200000D02*
D03*
D86*
X1840000Y2145000D02*
D03*
X1940000D02*
D03*
X2190000D02*
D03*
X2290000D02*
D03*
X2390000D02*
D03*
X2165000Y2950000D02*
D03*
X2265000D02*
D03*
X2365000D02*
D03*
X1915000Y2910000D02*
D03*
X1815000D02*
D03*
D87*
X1930000Y2270000D02*
D03*
D88*
X1935000Y2530000D02*
D03*
D89*
X2580000Y1647756D02*
D03*
X2680000D02*
D03*
X2780000D02*
D03*
X2880000D02*
D03*
D90*
X2296930Y1628070D02*
D03*
X3163070D02*
D03*
Y761930D02*
D03*
X2296930D02*
D03*
D91*
X2100000Y2010000D02*
D03*
D92*
X2050000Y2220000D02*
D03*
D93*
X2565000Y2965000D02*
D03*
Y3315000D02*
D03*
X2570000Y2135000D02*
D03*
Y2485000D02*
D03*
D94*
X2650000Y3060000D02*
D03*
D95*
Y2840000D02*
D03*
D96*
X2465000Y2245000D02*
D03*
D97*
X2460000Y2955000D02*
D03*
D98*
X2465000Y2440000D02*
D03*
D99*
X2468878Y1648878D02*
D03*
D100*
X2595000Y1435000D02*
D03*
D101*
X2590000Y1070000D02*
D03*
D102*
X3310158Y2582440D02*
D03*
Y2110000D02*
D03*
X2829842D02*
D03*
Y2582440D02*
D03*
Y3426220D02*
D03*
Y2953780D02*
D03*
X3310158D02*
D03*
Y3426220D02*
D03*
D103*
X2751102Y2346220D02*
D03*
Y3190000D02*
D03*
D104*
X3479000Y1195000D02*
D03*
X3580000D02*
D03*
X3678000D02*
D03*
D105*
X1830000Y3460000D02*
D03*
Y3110000D02*
D03*
X1825000Y2320000D02*
D03*
Y2670000D02*
D03*
D106*
X265000Y3280000D02*
D03*
Y3480000D02*
D03*
X3665000Y2545000D02*
D03*
X3667620Y2142380D02*
D03*
Y2342380D02*
D03*
X3662380Y3397620D02*
D03*
X3665000Y2995000D02*
D03*
Y3195000D02*
D03*
D107*
X675118Y1938386D02*
D03*
X1564882D02*
D03*
X966456Y3611614D02*
D03*
X1273544D02*
D03*
D108*
X170000Y165000D02*
D03*
D109*
X145000Y3760000D02*
D03*
D110*
X3750000D02*
D03*
D111*
X3745000Y130000D02*
D03*
D112*
X3680000Y660000D02*
D03*
Y1010000D02*
D03*
D113*
Y660000D02*
D03*
D03*
%TF.MD5,2ce3640366dc2fcce5e436322fd1154e*%
M02*
