%TF.GenerationSoftware,Altium Limited,Altium Designer,23.10.1 (27)*%
G04 Layer_Color=16711935*
%FSLAX26Y26*%
%MOIN*%
%TF.SameCoordinates,68AA919C-6303-421A-99F6-747A19599157*%
%TF.FilePolarity,Positive*%
%TF.FileFunction,Other,Mechanical_13*%
%TF.Part,Single*%
G01*
G75*
%TA.AperFunction,NonConductor*%
%ADD40C,0.007874*%
%ADD45C,0.005000*%
D40*
X1724764Y1669646D02*
G03*
X1724764Y1669646I-3937J0D01*
G01*
X2576457Y1726496D02*
G03*
X2576457Y1726496I-3937J0D01*
G01*
X1222362Y3773819D02*
G03*
X1222362Y3773819I-3937J0D01*
G01*
D45*
X2112952Y1211418D02*
Y1647204D01*
Y947204D02*
Y1211418D01*
Y524764D02*
Y947204D01*
X107048Y1647204D02*
X2112952D01*
X107048Y524764D02*
X2112952D01*
X107048Y1435788D02*
Y1647204D01*
Y739330D02*
Y1435788D01*
Y524764D02*
Y739330D01*
Y1435788D02*
X362560D01*
X859804D01*
Y739330D02*
Y1435788D01*
X362560Y739330D02*
X859804D01*
X107048D02*
X362560D01*
Y1435788D01*
X1959804Y947204D02*
X2112952D01*
X1959804D02*
Y1211418D01*
X2112952D01*
X2218190Y1706812D02*
X3241812D01*
Y683190D02*
Y1706812D01*
X3005590Y683190D02*
X3241812D01*
X2218190D02*
X2454410D01*
X2218190D02*
Y1706812D01*
X2454410Y683190D02*
Y761930D01*
X3005590D01*
Y683190D02*
Y761930D01*
X2694016Y2041102D02*
X3445984D01*
Y2651338D01*
X2694016D02*
X3445984D01*
X2694016Y2041102D02*
Y2651338D01*
Y2884882D02*
Y3495118D01*
X3445984D01*
Y2884882D02*
Y3495118D01*
X2694016Y2884882D02*
X3445984D01*
X558976Y3710040D02*
X1681024D01*
X558976Y1839960D02*
Y3710040D01*
Y1839960D02*
X1681024D01*
Y3710040D01*
%TF.MD5,657e2365ab546f20f1966c4c0f26b996*%
M02*
