%TF.GenerationSoftware,Altium Limited,Altium Designer,23.10.1 (27)*%
G04 Layer_Color=16711935*
%FSLAX26Y26*%
%MOIN*%
%TF.SameCoordinates,68AA919C-6303-421A-99F6-747A19599157*%
%TF.FilePolarity,Negative*%
%TF.FileFunction,Soldermask,Bot*%
%TF.Part,Single*%
G01*
G75*
%TA.AperFunction,ComponentPad*%
%ADD48C,0.083000*%
%ADD49R,0.086740X0.086740*%
%ADD50C,0.086740*%
%ADD51C,0.126110*%
%TA.AperFunction,ViaPad*%
%ADD52C,0.078000*%
%TA.AperFunction,ComponentPad*%
%ADD53O,0.073000X0.108000*%
%ADD54R,0.073000X0.108000*%
%ADD55R,0.067370X0.067370*%
%ADD56C,0.067370*%
%ADD57C,0.088000*%
%ADD58R,0.088000X0.088000*%
%ADD59C,0.085953*%
%ADD60C,0.084181*%
%ADD61R,0.085953X0.085953*%
%ADD62O,0.073000X0.083000*%
%ADD63O,0.074000X0.108000*%
%ADD64O,0.098000X0.068000*%
%ADD65R,0.098000X0.068000*%
%ADD66C,0.078000*%
%ADD67C,0.118000*%
%ADD68C,0.084772*%
%ADD69R,0.084772X0.084772*%
%TA.AperFunction,ViaPad*%
%ADD70C,0.126110*%
%ADD71C,0.068000*%
%ADD72C,0.058000*%
D48*
X2289000Y355000D02*
D03*
X2560000Y543000D02*
D03*
Y355000D02*
D03*
X2289000Y543000D02*
D03*
X3169000Y355000D02*
D03*
X3440000Y543000D02*
D03*
Y355000D02*
D03*
X3169000Y543000D02*
D03*
X2729000D02*
D03*
X3000000Y355000D02*
D03*
Y543000D02*
D03*
X2729000Y355000D02*
D03*
D49*
X1720826Y1585000D02*
D03*
D50*
X1620826D02*
D03*
X1520826D02*
D03*
X1420826D02*
D03*
X1320826D02*
D03*
X1220826D02*
D03*
X1120826D02*
D03*
X1020826D02*
D03*
X920826D02*
D03*
X820826D02*
D03*
X720826D02*
D03*
X620826D02*
D03*
X520826D02*
D03*
X420826D02*
D03*
X320826D02*
D03*
X1720826Y585000D02*
D03*
X1620826D02*
D03*
X1520826D02*
D03*
X1420826D02*
D03*
X1320826D02*
D03*
X1220826D02*
D03*
X1120826D02*
D03*
X1020826D02*
D03*
X920826D02*
D03*
X820826D02*
D03*
X720826D02*
D03*
X620826D02*
D03*
X520826D02*
D03*
X420826D02*
D03*
X320826D02*
D03*
D51*
X185788Y1568464D02*
D03*
Y603504D02*
D03*
X2034212D02*
D03*
Y1568464D02*
D03*
X2296930Y1628070D02*
D03*
X3163070D02*
D03*
Y761930D02*
D03*
X2296930D02*
D03*
D52*
X815000Y2755000D02*
D03*
X820000Y1680000D02*
D03*
X2430000Y1070000D02*
D03*
X1625000D02*
D03*
X1960000Y1355000D02*
D03*
X1840000Y2030000D02*
D03*
X1735000D02*
D03*
X1865000Y1200000D02*
D03*
X1930000Y2270000D02*
D03*
X1935000Y2530000D02*
D03*
X2100000Y2010000D02*
D03*
X2050000Y2220000D02*
D03*
X2650000Y3060000D02*
D03*
Y2840000D02*
D03*
X2465000Y2245000D02*
D03*
X2460000Y2955000D02*
D03*
X2465000Y2440000D02*
D03*
X2468878Y1648878D02*
D03*
X2595000Y1435000D02*
D03*
X2590000Y1070000D02*
D03*
D53*
X1840000Y2145000D02*
D03*
X1815000Y2910000D02*
D03*
D54*
X1940000Y2145000D02*
D03*
X1915000Y2910000D02*
D03*
D55*
X2580000Y1647756D02*
D03*
D56*
X2680000D02*
D03*
X2780000D02*
D03*
X2880000D02*
D03*
D57*
X2565000Y2965000D02*
D03*
X2570000Y2135000D02*
D03*
D58*
X2565000Y3315000D02*
D03*
X2570000Y2485000D02*
D03*
D59*
X3310158Y2582440D02*
D03*
Y2110000D02*
D03*
X2829842D02*
D03*
Y2953780D02*
D03*
X3310158D02*
D03*
Y3426220D02*
D03*
D60*
X2751102Y2346220D02*
D03*
Y3190000D02*
D03*
D61*
X2829842Y2582440D02*
D03*
Y3426220D02*
D03*
D62*
X3479000Y1195000D02*
D03*
X3580000D02*
D03*
X3678000D02*
D03*
D63*
X2190000Y2145000D02*
D03*
X2290000D02*
D03*
X2390000D02*
D03*
X2165000Y2950000D02*
D03*
X2265000D02*
D03*
X2365000D02*
D03*
D64*
X2320000Y3425000D02*
D03*
Y3325000D02*
D03*
X2020000D02*
D03*
X2045000Y2530000D02*
D03*
X2345000D02*
D03*
Y2630000D02*
D03*
D65*
X2020000Y3425000D02*
D03*
X2045000Y2630000D02*
D03*
D66*
X2005000Y2350000D02*
D03*
X2355000D02*
D03*
X1980000Y3150000D02*
D03*
X2330000D02*
D03*
X1830000Y3460000D02*
D03*
Y3110000D02*
D03*
X1825000Y2320000D02*
D03*
Y2670000D02*
D03*
D67*
X265000Y3280000D02*
D03*
Y3480000D02*
D03*
X3665000Y2545000D02*
D03*
X3667620Y2142380D02*
D03*
Y2342380D02*
D03*
X3662380Y3397620D02*
D03*
X3665000Y2995000D02*
D03*
Y3195000D02*
D03*
D68*
X675118Y1938386D02*
D03*
X1564882D02*
D03*
X966456Y3611614D02*
D03*
D69*
X1273544D02*
D03*
D70*
X170000Y165000D02*
D03*
X145000Y3760000D02*
D03*
X3750000D02*
D03*
X3745000Y130000D02*
D03*
D71*
X3680000Y660000D02*
D03*
Y1010000D02*
D03*
D72*
Y660000D02*
D03*
D03*
%TF.MD5,efb6bbbc848f509076bf9dfd4b6650a7*%
M02*
