%TF.GenerationSoftware,Altium Limited,Altium Designer,23.10.1 (27)*%
G04 Layer_Color=2752767*
%FSLAX26Y26*%
%MOIN*%
%TF.SameCoordinates,68AA919C-6303-421A-99F6-747A19599157*%
%TF.FilePolarity,Positive*%
%TF.FileFunction,Drawing*%
%TF.Part,Single*%
G01*
G75*
%TA.AperFunction,NonConductor*%
%ADD45C,0.005000*%
%ADD115C,0.006667*%
%ADD116C,0.004000*%
D45*
X2269000Y335000D02*
Y375000D01*
X2309000D01*
Y335000D01*
X2269000D01*
X2540000Y523000D02*
Y563000D01*
X2580000D01*
Y523000D01*
X2540000D01*
Y335000D02*
Y375000D01*
X2580000D01*
Y335000D01*
X2540000D01*
X2269000Y523000D02*
Y563000D01*
X2309000D01*
Y523000D01*
X2269000D01*
X3149000Y335000D02*
Y375000D01*
X3189000D01*
Y335000D01*
X3149000D01*
X3420000Y523000D02*
Y563000D01*
X3460000D01*
Y523000D01*
X3420000D01*
Y335000D02*
Y375000D01*
X3460000D01*
Y335000D01*
X3420000D01*
X3149000Y523000D02*
Y563000D01*
X3189000D01*
Y523000D01*
X3149000D01*
X2709000D02*
Y563000D01*
X2749000D01*
Y523000D01*
X2709000D01*
X2980000Y335000D02*
Y375000D01*
X3020000D01*
Y335000D01*
X2980000D01*
Y523000D02*
Y563000D01*
X3020000D01*
Y523000D01*
X2980000D01*
X2709000Y335000D02*
Y375000D01*
X2749000D01*
Y335000D01*
X2709000D01*
X1700826Y1565000D02*
X1710826D01*
X1720826Y1575000D01*
X1730826Y1565000D01*
X1740826D01*
Y1575000D01*
X1730826Y1585000D01*
X1740826Y1595000D01*
Y1605000D01*
X1730826D01*
X1720826Y1595000D01*
X1710826Y1605000D01*
X1700826D01*
Y1595000D01*
X1710826Y1585000D01*
X1700826Y1575000D01*
Y1565000D01*
X1600826D02*
X1610826D01*
X1620826Y1575000D01*
X1630826Y1565000D01*
X1640826D01*
Y1575000D01*
X1630826Y1585000D01*
X1640826Y1595000D01*
Y1605000D01*
X1630826D01*
X1620826Y1595000D01*
X1610826Y1605000D01*
X1600826D01*
Y1595000D01*
X1610826Y1585000D01*
X1600826Y1575000D01*
Y1565000D01*
X1500826D02*
X1510826D01*
X1520826Y1575000D01*
X1530826Y1565000D01*
X1540826D01*
Y1575000D01*
X1530826Y1585000D01*
X1540826Y1595000D01*
Y1605000D01*
X1530826D01*
X1520826Y1595000D01*
X1510826Y1605000D01*
X1500826D01*
Y1595000D01*
X1510826Y1585000D01*
X1500826Y1575000D01*
Y1565000D01*
X1400826D02*
X1410826D01*
X1420826Y1575000D01*
X1430826Y1565000D01*
X1440826D01*
Y1575000D01*
X1430826Y1585000D01*
X1440826Y1595000D01*
Y1605000D01*
X1430826D01*
X1420826Y1595000D01*
X1410826Y1605000D01*
X1400826D01*
Y1595000D01*
X1410826Y1585000D01*
X1400826Y1575000D01*
Y1565000D01*
X1300826D02*
X1310826D01*
X1320826Y1575000D01*
X1330826Y1565000D01*
X1340826D01*
Y1575000D01*
X1330826Y1585000D01*
X1340826Y1595000D01*
Y1605000D01*
X1330826D01*
X1320826Y1595000D01*
X1310826Y1605000D01*
X1300826D01*
Y1595000D01*
X1310826Y1585000D01*
X1300826Y1575000D01*
Y1565000D01*
X1200826D02*
X1210826D01*
X1220826Y1575000D01*
X1230826Y1565000D01*
X1240826D01*
Y1575000D01*
X1230826Y1585000D01*
X1240826Y1595000D01*
Y1605000D01*
X1230826D01*
X1220826Y1595000D01*
X1210826Y1605000D01*
X1200826D01*
Y1595000D01*
X1210826Y1585000D01*
X1200826Y1575000D01*
Y1565000D01*
X1100826D02*
X1110826D01*
X1120826Y1575000D01*
X1130826Y1565000D01*
X1140826D01*
Y1575000D01*
X1130826Y1585000D01*
X1140826Y1595000D01*
Y1605000D01*
X1130826D01*
X1120826Y1595000D01*
X1110826Y1605000D01*
X1100826D01*
Y1595000D01*
X1110826Y1585000D01*
X1100826Y1575000D01*
Y1565000D01*
X1000826D02*
X1010826D01*
X1020826Y1575000D01*
X1030826Y1565000D01*
X1040826D01*
Y1575000D01*
X1030826Y1585000D01*
X1040826Y1595000D01*
Y1605000D01*
X1030826D01*
X1020826Y1595000D01*
X1010826Y1605000D01*
X1000826D01*
Y1595000D01*
X1010826Y1585000D01*
X1000826Y1575000D01*
Y1565000D01*
X900826D02*
X910826D01*
X920826Y1575000D01*
X930826Y1565000D01*
X940826D01*
Y1575000D01*
X930826Y1585000D01*
X940826Y1595000D01*
Y1605000D01*
X930826D01*
X920826Y1595000D01*
X910826Y1605000D01*
X900826D01*
Y1595000D01*
X910826Y1585000D01*
X900826Y1575000D01*
Y1565000D01*
X800826D02*
X810826D01*
X820826Y1575000D01*
X830826Y1565000D01*
X840826D01*
Y1575000D01*
X830826Y1585000D01*
X840826Y1595000D01*
Y1605000D01*
X830826D01*
X820826Y1595000D01*
X810826Y1605000D01*
X800826D01*
Y1595000D01*
X810826Y1585000D01*
X800826Y1575000D01*
Y1565000D01*
X700826D02*
X710826D01*
X720826Y1575000D01*
X730826Y1565000D01*
X740826D01*
Y1575000D01*
X730826Y1585000D01*
X740826Y1595000D01*
Y1605000D01*
X730826D01*
X720826Y1595000D01*
X710826Y1605000D01*
X700826D01*
Y1595000D01*
X710826Y1585000D01*
X700826Y1575000D01*
Y1565000D01*
X600826D02*
X610826D01*
X620826Y1575000D01*
X630826Y1565000D01*
X640826D01*
Y1575000D01*
X630826Y1585000D01*
X640826Y1595000D01*
Y1605000D01*
X630826D01*
X620826Y1595000D01*
X610826Y1605000D01*
X600826D01*
Y1595000D01*
X610826Y1585000D01*
X600826Y1575000D01*
Y1565000D01*
X500826D02*
X510826D01*
X520826Y1575000D01*
X530826Y1565000D01*
X540826D01*
Y1575000D01*
X530826Y1585000D01*
X540826Y1595000D01*
Y1605000D01*
X530826D01*
X520826Y1595000D01*
X510826Y1605000D01*
X500826D01*
Y1595000D01*
X510826Y1585000D01*
X500826Y1575000D01*
Y1565000D01*
X400826D02*
X410826D01*
X420826Y1575000D01*
X430826Y1565000D01*
X440826D01*
Y1575000D01*
X430826Y1585000D01*
X440826Y1595000D01*
Y1605000D01*
X430826D01*
X420826Y1595000D01*
X410826Y1605000D01*
X400826D01*
Y1595000D01*
X410826Y1585000D01*
X400826Y1575000D01*
Y1565000D01*
X300826D02*
X310826D01*
X320826Y1575000D01*
X330826Y1565000D01*
X340826D01*
Y1575000D01*
X330826Y1585000D01*
X340826Y1595000D01*
Y1605000D01*
X330826D01*
X320826Y1595000D01*
X310826Y1605000D01*
X300826D01*
Y1595000D01*
X310826Y1585000D01*
X300826Y1575000D01*
Y1565000D01*
X1700826Y565000D02*
X1710826D01*
X1720826Y575000D01*
X1730826Y565000D01*
X1740826D01*
Y575000D01*
X1730826Y585000D01*
X1740826Y595000D01*
Y605000D01*
X1730826D01*
X1720826Y595000D01*
X1710826Y605000D01*
X1700826D01*
Y595000D01*
X1710826Y585000D01*
X1700826Y575000D01*
Y565000D01*
X1600826D02*
X1610826D01*
X1620826Y575000D01*
X1630826Y565000D01*
X1640826D01*
Y575000D01*
X1630826Y585000D01*
X1640826Y595000D01*
Y605000D01*
X1630826D01*
X1620826Y595000D01*
X1610826Y605000D01*
X1600826D01*
Y595000D01*
X1610826Y585000D01*
X1600826Y575000D01*
Y565000D01*
X1500826D02*
X1510826D01*
X1520826Y575000D01*
X1530826Y565000D01*
X1540826D01*
Y575000D01*
X1530826Y585000D01*
X1540826Y595000D01*
Y605000D01*
X1530826D01*
X1520826Y595000D01*
X1510826Y605000D01*
X1500826D01*
Y595000D01*
X1510826Y585000D01*
X1500826Y575000D01*
Y565000D01*
X1400826D02*
X1410826D01*
X1420826Y575000D01*
X1430826Y565000D01*
X1440826D01*
Y575000D01*
X1430826Y585000D01*
X1440826Y595000D01*
Y605000D01*
X1430826D01*
X1420826Y595000D01*
X1410826Y605000D01*
X1400826D01*
Y595000D01*
X1410826Y585000D01*
X1400826Y575000D01*
Y565000D01*
X1300826D02*
X1310826D01*
X1320826Y575000D01*
X1330826Y565000D01*
X1340826D01*
Y575000D01*
X1330826Y585000D01*
X1340826Y595000D01*
Y605000D01*
X1330826D01*
X1320826Y595000D01*
X1310826Y605000D01*
X1300826D01*
Y595000D01*
X1310826Y585000D01*
X1300826Y575000D01*
Y565000D01*
X1200826D02*
X1210826D01*
X1220826Y575000D01*
X1230826Y565000D01*
X1240826D01*
Y575000D01*
X1230826Y585000D01*
X1240826Y595000D01*
Y605000D01*
X1230826D01*
X1220826Y595000D01*
X1210826Y605000D01*
X1200826D01*
Y595000D01*
X1210826Y585000D01*
X1200826Y575000D01*
Y565000D01*
X1100826D02*
X1110826D01*
X1120826Y575000D01*
X1130826Y565000D01*
X1140826D01*
Y575000D01*
X1130826Y585000D01*
X1140826Y595000D01*
Y605000D01*
X1130826D01*
X1120826Y595000D01*
X1110826Y605000D01*
X1100826D01*
Y595000D01*
X1110826Y585000D01*
X1100826Y575000D01*
Y565000D01*
X1000826D02*
X1010826D01*
X1020826Y575000D01*
X1030826Y565000D01*
X1040826D01*
Y575000D01*
X1030826Y585000D01*
X1040826Y595000D01*
Y605000D01*
X1030826D01*
X1020826Y595000D01*
X1010826Y605000D01*
X1000826D01*
Y595000D01*
X1010826Y585000D01*
X1000826Y575000D01*
Y565000D01*
X900826D02*
X910826D01*
X920826Y575000D01*
X930826Y565000D01*
X940826D01*
Y575000D01*
X930826Y585000D01*
X940826Y595000D01*
Y605000D01*
X930826D01*
X920826Y595000D01*
X910826Y605000D01*
X900826D01*
Y595000D01*
X910826Y585000D01*
X900826Y575000D01*
Y565000D01*
X800826D02*
X810826D01*
X820826Y575000D01*
X830826Y565000D01*
X840826D01*
Y575000D01*
X830826Y585000D01*
X840826Y595000D01*
Y605000D01*
X830826D01*
X820826Y595000D01*
X810826Y605000D01*
X800826D01*
Y595000D01*
X810826Y585000D01*
X800826Y575000D01*
Y565000D01*
X700826D02*
X710826D01*
X720826Y575000D01*
X730826Y565000D01*
X740826D01*
Y575000D01*
X730826Y585000D01*
X740826Y595000D01*
Y605000D01*
X730826D01*
X720826Y595000D01*
X710826Y605000D01*
X700826D01*
Y595000D01*
X710826Y585000D01*
X700826Y575000D01*
Y565000D01*
X600826D02*
X610826D01*
X620826Y575000D01*
X630826Y565000D01*
X640826D01*
Y575000D01*
X630826Y585000D01*
X640826Y595000D01*
Y605000D01*
X630826D01*
X620826Y595000D01*
X610826Y605000D01*
X600826D01*
Y595000D01*
X610826Y585000D01*
X600826Y575000D01*
Y565000D01*
X500826D02*
X510826D01*
X520826Y575000D01*
X530826Y565000D01*
X540826D01*
Y575000D01*
X530826Y585000D01*
X540826Y595000D01*
Y605000D01*
X530826D01*
X520826Y595000D01*
X510826Y605000D01*
X500826D01*
Y595000D01*
X510826Y585000D01*
X500826Y575000D01*
Y565000D01*
X400826D02*
X410826D01*
X420826Y575000D01*
X430826Y565000D01*
X440826D01*
Y575000D01*
X430826Y585000D01*
X440826Y595000D01*
Y605000D01*
X430826D01*
X420826Y595000D01*
X410826Y605000D01*
X400826D01*
Y595000D01*
X410826Y585000D01*
X400826Y575000D01*
Y565000D01*
X300826D02*
X310826D01*
X320826Y575000D01*
X330826Y565000D01*
X340826D01*
Y575000D01*
X330826Y585000D01*
X340826Y595000D01*
Y605000D01*
X330826D01*
X320826Y595000D01*
X310826Y605000D01*
X300826D01*
Y595000D01*
X310826Y585000D01*
X300826Y575000D01*
Y565000D01*
X165788Y1568464D02*
X185788Y1588464D01*
X205788Y1568464D01*
X185788Y1548464D01*
X165788Y1568464D01*
Y603504D02*
X185788Y623504D01*
X205788Y603504D01*
X185788Y583504D01*
X165788Y603504D01*
X2014212D02*
X2034212Y623504D01*
X2054212Y603504D01*
X2034212Y583504D01*
X2014212Y603504D01*
Y1568464D02*
X2034212Y1588464D01*
X2054212Y1568464D01*
X2034212Y1548464D01*
X2014212Y1568464D01*
X795000Y2735000D02*
Y2775000D01*
X835000D01*
Y2735000D01*
X795000D01*
X800000Y1660000D02*
Y1700000D01*
X840000D01*
Y1660000D01*
X800000D01*
X2410000Y1050000D02*
Y1090000D01*
X2450000D01*
Y1050000D01*
X2410000D01*
X1605000D02*
Y1090000D01*
X1645000D01*
Y1050000D01*
X1605000D01*
X1940000Y1335000D02*
Y1375000D01*
X1980000D01*
Y1335000D01*
X1940000D01*
X1820000Y2010000D02*
Y2050000D01*
X1860000D01*
Y2010000D01*
X1820000D01*
X1715000D02*
Y2050000D01*
X1755000D01*
Y2010000D01*
X1715000D01*
X1845000Y1180000D02*
Y1220000D01*
X1885000D01*
Y1180000D01*
X1845000D01*
X1840000Y2125000D02*
X1850000Y2135000D01*
X1860000D01*
X1850000Y2145000D01*
X1860000Y2155000D01*
X1850000D01*
X1840000Y2165000D01*
X1830000Y2155000D01*
X1820000D01*
X1830000Y2145000D01*
X1820000Y2135000D01*
X1830000D01*
X1840000Y2125000D01*
Y2133000D02*
X1846000Y2139000D01*
X1852000D01*
X1846000Y2145000D01*
X1852000Y2151000D01*
X1846000D01*
X1840000Y2157000D01*
X1834000Y2151000D01*
X1828000D01*
X1834000Y2145000D01*
X1828000Y2139000D01*
X1834000D01*
X1840000Y2133000D01*
X1940000Y2125000D02*
X1950000Y2135000D01*
X1960000D01*
X1950000Y2145000D01*
X1960000Y2155000D01*
X1950000D01*
X1940000Y2165000D01*
X1930000Y2155000D01*
X1920000D01*
X1930000Y2145000D01*
X1920000Y2135000D01*
X1930000D01*
X1940000Y2125000D01*
Y2133000D02*
X1946000Y2139000D01*
X1952000D01*
X1946000Y2145000D01*
X1952000Y2151000D01*
X1946000D01*
X1940000Y2157000D01*
X1934000Y2151000D01*
X1928000D01*
X1934000Y2145000D01*
X1928000Y2139000D01*
X1934000D01*
X1940000Y2133000D01*
X1910000Y2250000D02*
Y2290000D01*
X1950000D01*
Y2250000D01*
X1910000D01*
X1915000Y2510000D02*
Y2550000D01*
X1955000D01*
Y2510000D01*
X1915000D01*
X2296930Y1608070D02*
X2276930Y1648070D01*
X2316930D01*
X2296930Y1608070D01*
X3163070D02*
X3143070Y1648070D01*
X3183070D01*
X3163070Y1608070D01*
Y741930D02*
X3143070Y781930D01*
X3183070D01*
X3163070Y741930D01*
X2296930D02*
X2276930Y781930D01*
X2316930D01*
X2296930Y741930D01*
X2080000Y1990000D02*
Y2030000D01*
X2120000D01*
Y1990000D01*
X2080000D01*
X2030000Y2200000D02*
Y2240000D01*
X2070000D01*
Y2200000D01*
X2030000D01*
X2565000Y2945000D02*
X2545000Y2985000D01*
X2585000D01*
X2565000Y2945000D01*
Y2953000D02*
X2553000Y2977000D01*
X2577000D01*
X2565000Y2953000D01*
Y3295000D02*
X2545000Y3335000D01*
X2585000D01*
X2565000Y3295000D01*
Y3303000D02*
X2553000Y3327000D01*
X2577000D01*
X2565000Y3303000D01*
X2630000Y3040000D02*
Y3080000D01*
X2670000D01*
Y3040000D01*
X2630000D01*
Y2820000D02*
Y2860000D01*
X2670000D01*
Y2820000D01*
X2630000D01*
X2445000Y2225000D02*
Y2265000D01*
X2485000D01*
Y2225000D01*
X2445000D01*
X2440000Y2935000D02*
Y2975000D01*
X2480000D01*
Y2935000D01*
X2440000D01*
X2445000Y2420000D02*
Y2460000D01*
X2485000D01*
Y2420000D01*
X2445000D01*
X2448878Y1628878D02*
Y1668878D01*
X2488878D01*
Y1628878D01*
X2448878D01*
X2575000Y1415000D02*
Y1455000D01*
X2615000D01*
Y1415000D01*
X2575000D01*
X2570000Y1050000D02*
Y1090000D01*
X2610000D01*
Y1050000D01*
X2570000D01*
X3290158Y2562440D02*
Y2602440D01*
X3330158D01*
Y2562440D01*
X3290158D01*
X3298158Y2570440D02*
Y2594440D01*
X3322158D01*
Y2570440D01*
X3298158D01*
X3290158Y2090000D02*
Y2130000D01*
X3330158D01*
Y2090000D01*
X3290158D01*
X3298158Y2098000D02*
Y2122000D01*
X3322158D01*
Y2098000D01*
X3298158D01*
X2809842Y2090000D02*
Y2130000D01*
X2849842D01*
Y2090000D01*
X2809842D01*
X2817842Y2098000D02*
Y2122000D01*
X2841842D01*
Y2098000D01*
X2817842D01*
X2809842Y2562440D02*
Y2602440D01*
X2849842D01*
Y2562440D01*
X2809842D01*
X2817842Y2570440D02*
Y2594440D01*
X2841842D01*
Y2570440D01*
X2817842D01*
X3469000Y1185000D02*
Y1175000D01*
X3489000D01*
Y1185000D01*
X3499000D01*
Y1205000D01*
X3489000D01*
Y1215000D01*
X3469000D01*
Y1205000D01*
X3459000D01*
Y1185000D01*
X3469000D01*
X3570000D02*
Y1175000D01*
X3590000D01*
Y1185000D01*
X3600000D01*
Y1205000D01*
X3590000D01*
Y1215000D01*
X3570000D01*
Y1205000D01*
X3560000D01*
Y1185000D01*
X3570000D01*
X3668000D02*
Y1175000D01*
X3688000D01*
Y1185000D01*
X3698000D01*
Y1205000D01*
X3688000D01*
Y1215000D01*
X3668000D01*
Y1205000D01*
X3658000D01*
Y1185000D01*
X3668000D01*
X2809842Y3406220D02*
Y3446220D01*
X2849842D01*
Y3406220D01*
X2809842D01*
X2817842Y3414220D02*
Y3438220D01*
X2841842D01*
Y3414220D01*
X2817842D01*
X2809842Y2933780D02*
Y2973780D01*
X2849842D01*
Y2933780D01*
X2809842D01*
X2817842Y2941780D02*
Y2965780D01*
X2841842D01*
Y2941780D01*
X2817842D01*
X3290158Y2933780D02*
Y2973780D01*
X3330158D01*
Y2933780D01*
X3290158D01*
X3298158Y2941780D02*
Y2965780D01*
X3322158D01*
Y2941780D01*
X3298158D01*
X3290158Y3406220D02*
Y3446220D01*
X3330158D01*
Y3406220D01*
X3290158D01*
X3298158Y3414220D02*
Y3438220D01*
X3322158D01*
Y3414220D01*
X3298158D01*
X2570000Y2115000D02*
X2550000Y2155000D01*
X2590000D01*
X2570000Y2115000D01*
Y2123000D02*
X2558000Y2147000D01*
X2582000D01*
X2570000Y2123000D01*
Y2465000D02*
X2550000Y2505000D01*
X2590000D01*
X2570000Y2465000D01*
Y2473000D02*
X2558000Y2497000D01*
X2582000D01*
X2570000Y2473000D01*
X2190000Y2125000D02*
X2200000Y2135000D01*
X2210000D01*
X2200000Y2145000D01*
X2210000Y2155000D01*
X2200000D01*
X2190000Y2165000D01*
X2180000Y2155000D01*
X2170000D01*
X2180000Y2145000D01*
X2170000Y2135000D01*
X2180000D01*
X2190000Y2125000D01*
Y2133000D02*
X2196000Y2139000D01*
X2202000D01*
X2196000Y2145000D01*
X2202000Y2151000D01*
X2196000D01*
X2190000Y2157000D01*
X2184000Y2151000D01*
X2178000D01*
X2184000Y2145000D01*
X2178000Y2139000D01*
X2184000D01*
X2190000Y2133000D01*
X2290000Y2125000D02*
X2300000Y2135000D01*
X2310000D01*
X2300000Y2145000D01*
X2310000Y2155000D01*
X2300000D01*
X2290000Y2165000D01*
X2280000Y2155000D01*
X2270000D01*
X2280000Y2145000D01*
X2270000Y2135000D01*
X2280000D01*
X2290000Y2125000D01*
Y2133000D02*
X2296000Y2139000D01*
X2302000D01*
X2296000Y2145000D01*
X2302000Y2151000D01*
X2296000D01*
X2290000Y2157000D01*
X2284000Y2151000D01*
X2278000D01*
X2284000Y2145000D01*
X2278000Y2139000D01*
X2284000D01*
X2290000Y2133000D01*
X2390000Y2125000D02*
X2400000Y2135000D01*
X2410000D01*
X2400000Y2145000D01*
X2410000Y2155000D01*
X2400000D01*
X2390000Y2165000D01*
X2380000Y2155000D01*
X2370000D01*
X2380000Y2145000D01*
X2370000Y2135000D01*
X2380000D01*
X2390000Y2125000D01*
Y2133000D02*
X2396000Y2139000D01*
X2402000D01*
X2396000Y2145000D01*
X2402000Y2151000D01*
X2396000D01*
X2390000Y2157000D01*
X2384000Y2151000D01*
X2378000D01*
X2384000Y2145000D01*
X2378000Y2139000D01*
X2384000D01*
X2390000Y2133000D01*
X2165000Y2930000D02*
X2175000Y2940000D01*
X2185000D01*
X2175000Y2950000D01*
X2185000Y2960000D01*
X2175000D01*
X2165000Y2970000D01*
X2155000Y2960000D01*
X2145000D01*
X2155000Y2950000D01*
X2145000Y2940000D01*
X2155000D01*
X2165000Y2930000D01*
Y2938000D02*
X2171000Y2944000D01*
X2177000D01*
X2171000Y2950000D01*
X2177000Y2956000D01*
X2171000D01*
X2165000Y2962000D01*
X2159000Y2956000D01*
X2153000D01*
X2159000Y2950000D01*
X2153000Y2944000D01*
X2159000D01*
X2165000Y2938000D01*
X2265000Y2930000D02*
X2275000Y2940000D01*
X2285000D01*
X2275000Y2950000D01*
X2285000Y2960000D01*
X2275000D01*
X2265000Y2970000D01*
X2255000Y2960000D01*
X2245000D01*
X2255000Y2950000D01*
X2245000Y2940000D01*
X2255000D01*
X2265000Y2930000D01*
Y2938000D02*
X2271000Y2944000D01*
X2277000D01*
X2271000Y2950000D01*
X2277000Y2956000D01*
X2271000D01*
X2265000Y2962000D01*
X2259000Y2956000D01*
X2253000D01*
X2259000Y2950000D01*
X2253000Y2944000D01*
X2259000D01*
X2265000Y2938000D01*
X2365000Y2930000D02*
X2375000Y2940000D01*
X2385000D01*
X2375000Y2950000D01*
X2385000Y2960000D01*
X2375000D01*
X2365000Y2970000D01*
X2355000Y2960000D01*
X2345000D01*
X2355000Y2950000D01*
X2345000Y2940000D01*
X2355000D01*
X2365000Y2930000D01*
Y2938000D02*
X2371000Y2944000D01*
X2377000D01*
X2371000Y2950000D01*
X2377000Y2956000D01*
X2371000D01*
X2365000Y2962000D01*
X2359000Y2956000D01*
X2353000D01*
X2359000Y2950000D01*
X2353000Y2944000D01*
X2359000D01*
X2365000Y2938000D01*
X2300000Y3405000D02*
Y3445000D01*
X2340000D01*
Y3405000D01*
X2300000D01*
Y3305000D02*
Y3345000D01*
X2340000D01*
Y3305000D01*
X2300000D01*
X2000000D02*
Y3345000D01*
X2040000D01*
Y3305000D01*
X2000000D01*
Y3405000D02*
Y3445000D01*
X2040000D01*
Y3405000D01*
X2000000D01*
X2025000Y2610000D02*
Y2650000D01*
X2065000D01*
Y2610000D01*
X2025000D01*
Y2510000D02*
Y2550000D01*
X2065000D01*
Y2510000D01*
X2025000D01*
X2325000D02*
Y2550000D01*
X2365000D01*
Y2510000D01*
X2325000D01*
Y2610000D02*
Y2650000D01*
X2365000D01*
Y2610000D01*
X2325000D01*
X1985000Y2330000D02*
Y2370000D01*
X2025000D01*
Y2330000D01*
X1985000D01*
X2335000D02*
Y2370000D01*
X2375000D01*
Y2330000D01*
X2335000D01*
X1960000Y3130000D02*
Y3170000D01*
X2000000D01*
Y3130000D01*
X1960000D01*
X2310000D02*
Y3170000D01*
X2350000D01*
Y3130000D01*
X2310000D01*
X1810000Y3440000D02*
Y3480000D01*
X1850000D01*
Y3440000D01*
X1810000D01*
Y3090000D02*
Y3130000D01*
X1850000D01*
Y3090000D01*
X1810000D01*
X245000Y3260000D02*
X255000Y3280000D01*
X245000Y3300000D01*
X265000Y3290000D01*
X285000Y3300000D01*
X275000Y3280000D01*
X285000Y3260000D01*
X265000Y3270000D01*
X245000Y3260000D01*
Y3460000D02*
X255000Y3480000D01*
X245000Y3500000D01*
X265000Y3490000D01*
X285000Y3500000D01*
X275000Y3480000D01*
X285000Y3460000D01*
X265000Y3470000D01*
X245000Y3460000D01*
X675118Y1918386D02*
X685118Y1928386D01*
X695118D01*
X685118Y1938386D01*
X695118Y1948386D01*
X685118D01*
X675118Y1958386D01*
X665118Y1948386D01*
X655118D01*
X665118Y1938386D01*
X655118Y1928386D01*
X665118D01*
X675118Y1918386D01*
X1564882D02*
X1574882Y1928386D01*
X1584882D01*
X1574882Y1938386D01*
X1584882Y1948386D01*
X1574882D01*
X1564882Y1958386D01*
X1554882Y1948386D01*
X1544882D01*
X1554882Y1938386D01*
X1544882Y1928386D01*
X1554882D01*
X1564882Y1918386D01*
X966456Y3591614D02*
X976456Y3601614D01*
X986456D01*
X976456Y3611614D01*
X986456Y3621614D01*
X976456D01*
X966456Y3631614D01*
X956456Y3621614D01*
X946456D01*
X956456Y3611614D01*
X946456Y3601614D01*
X956456D01*
X966456Y3591614D01*
X1273544D02*
X1283544Y3601614D01*
X1293544D01*
X1283544Y3611614D01*
X1293544Y3621614D01*
X1283544D01*
X1273544Y3631614D01*
X1263544Y3621614D01*
X1253544D01*
X1263544Y3611614D01*
X1253544Y3601614D01*
X1263544D01*
X1273544Y3591614D01*
X170000Y145000D02*
X150000Y185000D01*
X190000D01*
X170000Y145000D01*
X145000Y3740000D02*
X125000Y3780000D01*
X165000D01*
X145000Y3740000D01*
X3750000D02*
X3730000Y3780000D01*
X3770000D01*
X3750000Y3740000D01*
X3745000Y110000D02*
X3725000Y150000D01*
X3765000D01*
X3745000Y110000D01*
X1805000Y2300000D02*
Y2340000D01*
X1845000D01*
Y2300000D01*
X1805000D01*
Y2650000D02*
Y2690000D01*
X1845000D01*
Y2650000D01*
X1805000D01*
X3645000Y2525000D02*
X3655000Y2545000D01*
X3645000Y2565000D01*
X3665000Y2555000D01*
X3685000Y2565000D01*
X3675000Y2545000D01*
X3685000Y2525000D01*
X3665000Y2535000D01*
X3645000Y2525000D01*
X3647620Y2122380D02*
X3657620Y2142380D01*
X3647620Y2162380D01*
X3667620Y2152380D01*
X3687620Y2162380D01*
X3677620Y2142380D01*
X3687620Y2122380D01*
X3667620Y2132380D01*
X3647620Y2122380D01*
Y2322380D02*
X3657620Y2342380D01*
X3647620Y2362380D01*
X3667620Y2352380D01*
X3687620Y2362380D01*
X3677620Y2342380D01*
X3687620Y2322380D01*
X3667620Y2332380D01*
X3647620Y2322380D01*
X3642380Y3377620D02*
X3652380Y3397620D01*
X3642380Y3417620D01*
X3662380Y3407620D01*
X3682380Y3417620D01*
X3672380Y3397620D01*
X3682380Y3377620D01*
X3662380Y3387620D01*
X3642380Y3377620D01*
X3645000Y2975000D02*
X3655000Y2995000D01*
X3645000Y3015000D01*
X3665000Y3005000D01*
X3685000Y3015000D01*
X3675000Y2995000D01*
X3685000Y2975000D01*
X3665000Y2985000D01*
X3645000Y2975000D01*
Y3175000D02*
X3655000Y3195000D01*
X3645000Y3215000D01*
X3665000Y3205000D01*
X3685000Y3215000D01*
X3675000Y3195000D01*
X3685000Y3175000D01*
X3665000Y3185000D01*
X3645000Y3175000D01*
X1915000Y2890000D02*
X1925000Y2900000D01*
X1935000D01*
X1925000Y2910000D01*
X1935000Y2920000D01*
X1925000D01*
X1915000Y2930000D01*
X1905000Y2920000D01*
X1895000D01*
X1905000Y2910000D01*
X1895000Y2900000D01*
X1905000D01*
X1915000Y2890000D01*
Y2898000D02*
X1921000Y2904000D01*
X1927000D01*
X1921000Y2910000D01*
X1927000Y2916000D01*
X1921000D01*
X1915000Y2922000D01*
X1909000Y2916000D01*
X1903000D01*
X1909000Y2910000D01*
X1903000Y2904000D01*
X1909000D01*
X1915000Y2898000D01*
X1815000Y2890000D02*
X1825000Y2900000D01*
X1835000D01*
X1825000Y2910000D01*
X1835000Y2920000D01*
X1825000D01*
X1815000Y2930000D01*
X1805000Y2920000D01*
X1795000D01*
X1805000Y2910000D01*
X1795000Y2900000D01*
X1805000D01*
X1815000Y2890000D01*
Y2898000D02*
X1821000Y2904000D01*
X1827000D01*
X1821000Y2910000D01*
X1827000Y2916000D01*
X1821000D01*
X1815000Y2922000D01*
X1809000Y2916000D01*
X1803000D01*
X1809000Y2910000D01*
X1803000Y2904000D01*
X1809000D01*
X1815000Y2898000D01*
X3670000Y650000D02*
Y640000D01*
X3690000D01*
Y650000D01*
X3700000D01*
Y670000D01*
X3690000D01*
Y680000D01*
X3670000D01*
Y670000D01*
X3660000D01*
Y650000D01*
X3670000D01*
X3674000Y654000D02*
Y648000D01*
X3686000D01*
Y654000D01*
X3692000D01*
Y666000D01*
X3686000D01*
Y672000D01*
X3674000D01*
Y666000D01*
X3668000D01*
Y654000D01*
X3674000D01*
X3670000Y1000000D02*
Y990000D01*
X3690000D01*
Y1000000D01*
X3700000D01*
Y1020000D01*
X3690000D01*
Y1030000D01*
X3670000D01*
Y1020000D01*
X3660000D01*
Y1000000D01*
X3670000D01*
X3674000Y1004000D02*
Y998000D01*
X3686000D01*
Y1004000D01*
X3692000D01*
Y1016000D01*
X3686000D01*
Y1022000D01*
X3674000D01*
Y1016000D01*
X3668000D01*
Y1004000D01*
X3674000D01*
D115*
X2600000Y1647756D02*
G03*
X2600000Y1647756I-20000J0D01*
G01*
X2700000D02*
G03*
X2700000Y1647756I-20000J0D01*
G01*
X2800000D02*
G03*
X2800000Y1647756I-20000J0D01*
G01*
X2900000D02*
G03*
X2900000Y1647756I-20000J0D01*
G01*
X2771102Y2346220D02*
G03*
X2771102Y2346220I-20000J0D01*
G01*
Y3190000D02*
G03*
X2771102Y3190000I-20000J0D01*
G01*
D116*
X2763102Y2346220D02*
G03*
X2763102Y2346220I-12000J0D01*
G01*
Y3190000D02*
G03*
X2763102Y3190000I-12000J0D01*
G01*
%TF.MD5,cb08127962d6bbc9aec78f7dbdcbb883*%
M02*
