M48
;Layer_Color=9474304
;FILE_FORMAT=2:4
INCH,TZ
;TYPE=PLATED
T01F00S00C0.0280
T02F00S00C0.0300
T03F00S00C0.0310
T04F00S00C0.0320
T05F00S00C0.0350
T06F00S00C0.0360
T07F00S00C0.0394
T08F00S00C0.0402
T09F00S00C0.0500
T10F00S00C0.0508
T11F00S00C0.0512
T12F00S00C0.0520
T13F00S00C0.0787
;TYPE=NON_PLATED
T14F00S00C0.1181
%
T01
X36800Y6600
T02
X36800Y6600
Y10100
T03
X22890Y3550
Y5430
X25600
X27290
Y3550
X25600
X30000
X31690
Y5430
X30000
X34400
Y3550
X25900Y10700
X24300
X25950Y14350
X24689Y16489
X21000Y20100
X18400Y20300
X17350
X19600Y13550
X18650Y12000
X16250Y10700
X8200Y16800
X8150Y27550
X18250Y26700
X19350Y25300
X20450
Y26300
X20050Y23500
X19300Y22700
X18250Y23200
X20500Y22200
X19800Y31500
X18300Y31100
Y34600
X20200Y34250
Y33250
X23200
Y34250
X23300Y31500
X24600Y29550
X26500Y30600
Y28400
X23450Y26300
Y25300
X23550Y23500
X24650Y24400
Y22450
T04
X18400Y21450
X19400
X19150Y29100
X18150
X21650Y29500
X22650
X23650
X23900Y21450
X22900
X21900
T05
X25700Y21350
Y24850
X25650Y29650
Y33150
T06
X34790Y11950
X35800
X36780
T07
X25800Y16478
X26800
X27800
X28800
T08
X6208Y5850
X7208
X8208
X9208
X10208
X11208
X12208
X13208
X14208
X15208
X16208
X17208
Y15850
X16208
X15208
X14208
X13208
X12208
X11208
X10208
X9208
X8208
X7208
X6208
X5208
X4208
X3208
Y5850
X4208
X5208
T09
X2650Y32800
Y34800
X36624Y33976
X36650Y31950
Y29950
Y25450
X36676Y23424
Y21424
T10
X27511Y23462
Y31900
T11
X6751Y19384
X15649
X12735Y36116
X9665
T12
X28298Y21100
X33102
Y25824
Y29538
Y34262
X28298
Y29538
Y25824
T13
X1700Y1650
X37450Y1300
X31631Y7619
Y16281
X22969
Y7619
X37500Y37600
X1450
T14
X20342Y6035
Y15685
X1858
Y6035
M30
