%TF.GenerationSoftware,Altium Limited,Altium Designer,23.10.1 (27)*%
G04 Layer_Physical_Order=2*
G04 Layer_Color=16711680*
%FSLAX26Y26*%
%MOIN*%
%TF.SameCoordinates,68AA919C-6303-421A-99F6-747A19599157*%
%TF.FilePolarity,Positive*%
%TF.FileFunction,Copper,L2,Bot,Signal*%
%TF.Part,Single*%
G01*
G75*
%TA.AperFunction,NonConductor*%
%ADD10C,0.010000*%
%TA.AperFunction,Conductor*%
%ADD11C,0.025000*%
%TA.AperFunction,ComponentPad*%
%ADD12C,0.075000*%
%ADD13R,0.078740X0.078740*%
%ADD14C,0.078740*%
%ADD15C,0.118110*%
%TA.AperFunction,ViaPad*%
%ADD16C,0.070000*%
%TA.AperFunction,ComponentPad*%
%ADD17O,0.065000X0.100000*%
%ADD18R,0.065000X0.100000*%
%ADD19R,0.059370X0.059370*%
%ADD20C,0.059370*%
%ADD21C,0.080000*%
%ADD22R,0.080000X0.080000*%
%ADD23C,0.077953*%
%ADD24C,0.076181*%
%ADD25R,0.077953X0.077953*%
%ADD26O,0.065000X0.075000*%
%ADD27O,0.066000X0.100000*%
%ADD28O,0.090000X0.060000*%
%ADD29R,0.090000X0.060000*%
%ADD30C,0.070000*%
%ADD31C,0.110000*%
%ADD32C,0.076772*%
%ADD33R,0.076772X0.076772*%
%TA.AperFunction,ViaPad*%
%ADD34C,0.118110*%
%ADD35C,0.060000*%
%ADD36C,0.050000*%
%TA.AperFunction,NonConductor*%
%ADD37C,0.025000*%
%TA.AperFunction,Conductor*%
%ADD38C,0.050000*%
G36*
X3910000Y0D02*
X0D01*
Y3930000D01*
X3910000D01*
Y0D01*
D02*
G37*
%LPC*%
G36*
X1120158Y3805345D02*
X1120157Y3805345D01*
X550001D01*
X550000Y3805345D01*
X539558Y3803970D01*
X529827Y3799940D01*
X521472Y3793528D01*
X521471Y3793528D01*
X276940Y3548996D01*
X271894Y3550000D01*
X258106D01*
X244582Y3547310D01*
X231843Y3542033D01*
X220378Y3534373D01*
X210627Y3524622D01*
X202967Y3513157D01*
X197690Y3500418D01*
X195000Y3486894D01*
Y3473106D01*
X197690Y3459582D01*
X202967Y3446843D01*
X210627Y3435378D01*
X220378Y3425627D01*
X231843Y3417967D01*
X244582Y3412690D01*
X258106Y3410000D01*
X271894D01*
X285418Y3412690D01*
X298157Y3417967D01*
X309622Y3425627D01*
X319373Y3435378D01*
X327033Y3446843D01*
X332310Y3459582D01*
X335000Y3473106D01*
Y3486894D01*
X333996Y3491940D01*
X566712Y3724655D01*
X1103446D01*
X1220158Y3607943D01*
Y3558228D01*
X1326930D01*
Y3665000D01*
X1277215D01*
X1148686Y3793528D01*
X1140331Y3799940D01*
X1130600Y3803970D01*
X1120158Y3805345D01*
D02*
G37*
G36*
X3757294Y3834055D02*
X3742706D01*
X3728399Y3831209D01*
X3714922Y3825627D01*
X3702793Y3817522D01*
X3692478Y3807207D01*
X3684373Y3795078D01*
X3678791Y3781601D01*
X3675945Y3767294D01*
Y3752706D01*
X3678791Y3738399D01*
X3684373Y3724922D01*
X3692478Y3712793D01*
X3702793Y3702478D01*
X3714922Y3694373D01*
X3728399Y3688791D01*
X3742706Y3685945D01*
X3757294D01*
X3771601Y3688791D01*
X3785078Y3694373D01*
X3797207Y3702478D01*
X3807522Y3712793D01*
X3815627Y3724922D01*
X3821209Y3738399D01*
X3824055Y3752706D01*
Y3767294D01*
X3821209Y3781601D01*
X3815627Y3795078D01*
X3807522Y3807207D01*
X3797207Y3817522D01*
X3785078Y3825627D01*
X3771601Y3831209D01*
X3757294Y3834055D01*
D02*
G37*
G36*
X152294D02*
X137706D01*
X123399Y3831209D01*
X109922Y3825627D01*
X97793Y3817522D01*
X87478Y3807207D01*
X79373Y3795078D01*
X73791Y3781601D01*
X70945Y3767294D01*
Y3752706D01*
X73791Y3738399D01*
X79373Y3724922D01*
X87478Y3712793D01*
X97793Y3702478D01*
X109922Y3694373D01*
X123399Y3688791D01*
X137706Y3685945D01*
X152294D01*
X166601Y3688791D01*
X180078Y3694373D01*
X192207Y3702478D01*
X202522Y3712793D01*
X210627Y3724922D01*
X216209Y3738399D01*
X219055Y3752706D01*
Y3767294D01*
X216209Y3781601D01*
X210627Y3795078D01*
X202522Y3807207D01*
X192207Y3817522D01*
X180078Y3825627D01*
X166601Y3831209D01*
X152294Y3834055D01*
D02*
G37*
G36*
X2080000Y3470000D02*
X1960000D01*
Y3452737D01*
X1935000D01*
X1927821Y3451792D01*
X1921131Y3449021D01*
X1915387Y3444613D01*
X1810387Y3339613D01*
X1805979Y3333869D01*
X1803208Y3327179D01*
X1802263Y3320000D01*
Y3151721D01*
X1799299Y3150010D01*
X1789990Y3140701D01*
X1783408Y3129299D01*
X1780000Y3116583D01*
Y3103417D01*
X1783408Y3090701D01*
X1789990Y3079299D01*
X1799299Y3069990D01*
X1810701Y3063407D01*
X1823417Y3060000D01*
X1836583D01*
X1849299Y3063407D01*
X1860701Y3069990D01*
X1867263Y3076552D01*
X1872263Y3074481D01*
Y2975000D01*
X1867500D01*
Y2930941D01*
X1862500Y2930614D01*
X1861277Y2939900D01*
X1856491Y2951455D01*
X1848877Y2961377D01*
X1838955Y2968991D01*
X1827400Y2973777D01*
X1815000Y2975410D01*
X1802600Y2973777D01*
X1791045Y2968991D01*
X1781123Y2961377D01*
X1773509Y2951455D01*
X1768723Y2939900D01*
X1767090Y2927500D01*
Y2892500D01*
X1767810Y2887036D01*
X1663511Y2782737D01*
X856721D01*
X855010Y2785701D01*
X845701Y2795010D01*
X834299Y2801593D01*
X821583Y2805000D01*
X808417D01*
X795701Y2801593D01*
X784299Y2795010D01*
X774990Y2785701D01*
X768408Y2774299D01*
X765000Y2761583D01*
Y2748417D01*
X768408Y2735701D01*
X774990Y2724299D01*
X784299Y2714990D01*
X795701Y2708407D01*
X808417Y2705000D01*
X821583D01*
X834299Y2708407D01*
X845701Y2714990D01*
X855010Y2724299D01*
X856721Y2727263D01*
X1675000D01*
X1682179Y2728208D01*
X1688869Y2730979D01*
X1694613Y2735387D01*
X1805118Y2845891D01*
X1815000Y2844590D01*
X1827400Y2846223D01*
X1838955Y2851009D01*
X1848877Y2858623D01*
X1856491Y2868545D01*
X1861277Y2880100D01*
X1862500Y2889386D01*
X1867500Y2889059D01*
Y2845000D01*
X1962500D01*
Y2975000D01*
X1927737D01*
Y3132544D01*
X1932737Y3133202D01*
X1933408Y3130701D01*
X1939990Y3119299D01*
X1949299Y3109990D01*
X1960701Y3103407D01*
X1973417Y3100000D01*
X1986583D01*
X1999299Y3103407D01*
X2010701Y3109990D01*
X2020010Y3119299D01*
X2021721Y3122263D01*
X2103511D01*
X2137263Y3088511D01*
Y3006219D01*
X2130766Y3001234D01*
X2123072Y2991207D01*
X2118235Y2979530D01*
X2116586Y2967000D01*
Y2933000D01*
X2118235Y2920470D01*
X2123072Y2908793D01*
X2130766Y2898766D01*
X2140793Y2891072D01*
X2152470Y2886235D01*
X2165000Y2884586D01*
X2177530Y2886235D01*
X2189207Y2891072D01*
X2199234Y2898766D01*
X2206928Y2908793D01*
X2211765Y2920470D01*
X2212478Y2925892D01*
X2217522D01*
X2218235Y2920470D01*
X2223072Y2908793D01*
X2230766Y2898766D01*
X2237263Y2893781D01*
Y2824645D01*
X2238208Y2817466D01*
X2240979Y2810776D01*
X2245387Y2805032D01*
X2260031Y2790387D01*
X2265776Y2785979D01*
X2272466Y2783208D01*
X2279645Y2782263D01*
X2425000D01*
X2432179Y2783208D01*
X2438869Y2785979D01*
X2444613Y2790387D01*
X2564226Y2910000D01*
X2572241D01*
X2586229Y2913748D01*
X2598771Y2920989D01*
X2604211Y2926429D01*
X2607145Y2926043D01*
X2783530D01*
X2786650Y2920638D01*
X2796700Y2910588D01*
X2809008Y2903482D01*
X2822736Y2899804D01*
X2836948D01*
X2850676Y2903482D01*
X2862984Y2910588D01*
X2873034Y2920638D01*
X2880140Y2932946D01*
X2883818Y2946674D01*
Y2960886D01*
X2880140Y2974614D01*
X2873034Y2986922D01*
X2862984Y2996972D01*
X2850676Y3004078D01*
X2836948Y3007756D01*
X2822736D01*
X2809008Y3004078D01*
X2796700Y2996972D01*
X2786650Y2986922D01*
X2783530Y2981517D01*
X2617514D01*
X2616252Y2986229D01*
X2609011Y2998771D01*
X2598771Y3009011D01*
X2586229Y3016252D01*
X2572241Y3020000D01*
X2557759D01*
X2543771Y3016252D01*
X2531229Y3009011D01*
X2520989Y2998771D01*
X2513748Y2986229D01*
X2511034Y2976099D01*
X2510898Y2976044D01*
X2505761Y2975740D01*
X2500010Y2985701D01*
X2490701Y2995010D01*
X2479299Y3001593D01*
X2466583Y3005000D01*
X2453417D01*
X2440701Y3001593D01*
X2429299Y2995010D01*
X2419990Y2985701D01*
X2416737Y2980066D01*
X2414711Y2979848D01*
X2411301Y2980650D01*
X2406928Y2991207D01*
X2399234Y3001234D01*
X2389207Y3008928D01*
X2377530Y3013765D01*
X2365000Y3015414D01*
X2352470Y3013765D01*
X2340793Y3008928D01*
X2330766Y3001234D01*
X2323072Y2991207D01*
X2318235Y2979530D01*
X2317522Y2974108D01*
X2312478D01*
X2311765Y2979530D01*
X2306928Y2991207D01*
X2299234Y3001234D01*
X2289207Y3008928D01*
X2277530Y3013765D01*
X2265000Y3015414D01*
X2252470Y3013765D01*
X2240793Y3008928D01*
X2230766Y3001234D01*
X2223072Y2991207D01*
X2218235Y2979530D01*
X2217522Y2974108D01*
X2212478D01*
X2211765Y2979530D01*
X2206928Y2991207D01*
X2199234Y3001234D01*
X2192737Y3006219D01*
Y3100000D01*
X2191792Y3107179D01*
X2189021Y3113869D01*
X2184613Y3119613D01*
X2134613Y3169613D01*
X2128869Y3174021D01*
X2122179Y3176792D01*
X2115000Y3177737D01*
X2021721D01*
X2020010Y3180701D01*
X2010701Y3190010D01*
X1999299Y3196593D01*
X1986583Y3200000D01*
X1973417D01*
X1960701Y3196593D01*
X1949299Y3190010D01*
X1939990Y3180701D01*
X1933408Y3169299D01*
X1932737Y3166798D01*
X1927737Y3167456D01*
Y3273511D01*
X1951489Y3297263D01*
X1969562D01*
X1972906Y3292906D01*
X1982306Y3285693D01*
X1993253Y3281158D01*
X2005000Y3279612D01*
X2035000D01*
X2046747Y3281158D01*
X2057694Y3285693D01*
X2067094Y3292906D01*
X2074307Y3302306D01*
X2078842Y3313253D01*
X2080388Y3325000D01*
X2078842Y3336747D01*
X2074307Y3347694D01*
X2067094Y3357094D01*
X2057694Y3364307D01*
X2046747Y3368842D01*
X2035000Y3370388D01*
X2005000D01*
X1993253Y3368842D01*
X1982306Y3364307D01*
X1972906Y3357094D01*
X1969562Y3352737D01*
X1940000D01*
X1932821Y3351792D01*
X1926131Y3349021D01*
X1920387Y3344613D01*
X1880387Y3304613D01*
X1875979Y3298869D01*
X1873208Y3292179D01*
X1872263Y3285000D01*
Y3145519D01*
X1867263Y3143448D01*
X1860701Y3150010D01*
X1857737Y3151721D01*
Y3308511D01*
X1946489Y3397263D01*
X1960000D01*
Y3380000D01*
X2080000D01*
Y3470000D01*
D02*
G37*
G36*
X2292251Y3547737D02*
X1877823D01*
X1870644Y3546792D01*
X1863954Y3544021D01*
X1858210Y3539613D01*
X1828597Y3510000D01*
X1823417D01*
X1810701Y3506593D01*
X1799299Y3500010D01*
X1789990Y3490701D01*
X1787341Y3486113D01*
X1785387Y3484613D01*
X1780979Y3478869D01*
X1778208Y3472179D01*
X1777263Y3465000D01*
X1778208Y3457821D01*
X1780000Y3453494D01*
Y3453417D01*
X1783408Y3440701D01*
X1789990Y3429299D01*
X1799299Y3419990D01*
X1810701Y3413407D01*
X1823417Y3410000D01*
X1836583D01*
X1849299Y3413407D01*
X1860701Y3419990D01*
X1870010Y3429299D01*
X1876592Y3440701D01*
X1880000Y3453417D01*
Y3466583D01*
X1876592Y3479299D01*
X1876503Y3479454D01*
X1889312Y3492263D01*
X2279159D01*
Y3461893D01*
X2272906Y3457094D01*
X2265693Y3447694D01*
X2261158Y3436747D01*
X2259612Y3425000D01*
X2261158Y3413253D01*
X2265693Y3402306D01*
X2272906Y3392906D01*
X2282306Y3385693D01*
X2293253Y3381158D01*
X2305000Y3379612D01*
X2335000D01*
X2346747Y3381158D01*
X2357694Y3385693D01*
X2367094Y3392906D01*
X2370438Y3397263D01*
X2443511D01*
X2510000Y3330774D01*
Y3260000D01*
X2580774D01*
X2622263Y3218511D01*
Y3101721D01*
X2619299Y3100010D01*
X2609990Y3090701D01*
X2603407Y3079299D01*
X2600000Y3066583D01*
Y3053417D01*
X2603407Y3040701D01*
X2609990Y3029299D01*
X2619299Y3019990D01*
X2630701Y3013407D01*
X2643417Y3010000D01*
X2656583D01*
X2669299Y3013407D01*
X2680701Y3019990D01*
X2690010Y3029299D01*
X2696593Y3040701D01*
X2700000Y3053417D01*
Y3066583D01*
X2696593Y3079299D01*
X2690010Y3090701D01*
X2680701Y3100010D01*
X2677737Y3101721D01*
Y3230000D01*
X2676792Y3237179D01*
X2674021Y3243869D01*
X2669613Y3249613D01*
X2620000Y3299226D01*
Y3330774D01*
X2687709Y3398483D01*
X2775866D01*
Y3372244D01*
X2883818D01*
Y3480196D01*
X2775866D01*
Y3453957D01*
X2676220D01*
X2669041Y3453012D01*
X2662351Y3450241D01*
X2656607Y3445833D01*
X2580774Y3370000D01*
X2549226D01*
X2474613Y3444613D01*
X2468869Y3449021D01*
X2462179Y3451792D01*
X2455000Y3452737D01*
X2370438D01*
X2367094Y3457094D01*
X2357694Y3464307D01*
X2346747Y3468842D01*
X2335000Y3470388D01*
X2334633D01*
Y3505355D01*
X2333688Y3512534D01*
X2330917Y3519224D01*
X2326509Y3524969D01*
X2311865Y3539613D01*
X2306120Y3544021D01*
X2299430Y3546792D01*
X2292251Y3547737D01*
D02*
G37*
G36*
X3317264Y3480196D02*
X3303052D01*
X3289324Y3476518D01*
X3277016Y3469412D01*
X3266966Y3459362D01*
X3259860Y3447054D01*
X3256182Y3433326D01*
Y3419114D01*
X3259860Y3405386D01*
X3266966Y3393078D01*
X3277016Y3383028D01*
X3289324Y3375922D01*
X3303052Y3372244D01*
X3307078D01*
X3315229Y3364092D01*
X3315230Y3364092D01*
X3323585Y3357680D01*
X3333316Y3353649D01*
X3343758Y3352275D01*
X3343759Y3352275D01*
X3608730D01*
X3617758Y3343247D01*
X3629223Y3335587D01*
X3641962Y3330310D01*
X3655486Y3327620D01*
X3669274D01*
X3682798Y3330310D01*
X3695537Y3335587D01*
X3707002Y3343247D01*
X3716753Y3352998D01*
X3717856Y3354649D01*
X3725173Y3357680D01*
X3733528Y3364092D01*
X3739940Y3372447D01*
X3743970Y3382178D01*
X3745345Y3392620D01*
X3743970Y3403062D01*
X3739940Y3412793D01*
X3733528Y3421148D01*
X3726013Y3426915D01*
X3724413Y3430777D01*
X3716753Y3442242D01*
X3707002Y3451993D01*
X3695537Y3459653D01*
X3682798Y3464930D01*
X3669274Y3467620D01*
X3655486D01*
X3641962Y3464930D01*
X3629223Y3459653D01*
X3617758Y3451993D01*
X3608007Y3442242D01*
X3601809Y3432965D01*
X3364134D01*
Y3433326D01*
X3360456Y3447054D01*
X3353350Y3459362D01*
X3343300Y3469412D01*
X3330992Y3476518D01*
X3317264Y3480196D01*
D02*
G37*
G36*
X973484Y3665000D02*
X959428D01*
X945850Y3661362D01*
X933676Y3654333D01*
X923737Y3644394D01*
X916708Y3632220D01*
X913070Y3618642D01*
Y3604586D01*
X916708Y3591008D01*
X923737Y3578834D01*
X926111Y3576460D01*
Y3453168D01*
X793288Y3320345D01*
X322231D01*
X319373Y3324622D01*
X309622Y3334373D01*
X298157Y3342033D01*
X285418Y3347310D01*
X271894Y3350000D01*
X258106D01*
X244582Y3347310D01*
X231843Y3342033D01*
X220378Y3334373D01*
X210627Y3324622D01*
X202967Y3313157D01*
X197690Y3300418D01*
X195000Y3286894D01*
Y3273106D01*
X197690Y3259582D01*
X202967Y3246843D01*
X210627Y3235378D01*
X220378Y3225627D01*
X231843Y3217967D01*
X244582Y3212690D01*
X258106Y3210000D01*
X271894D01*
X285418Y3212690D01*
X298157Y3217967D01*
X309622Y3225627D01*
X319373Y3235378D01*
X322231Y3239655D01*
X809999D01*
X810000Y3239655D01*
X820442Y3241030D01*
X830173Y3245060D01*
X838528Y3251472D01*
X994984Y3407928D01*
X1001396Y3416283D01*
X1005427Y3426014D01*
X1006801Y3436456D01*
X1006801Y3436457D01*
Y3576460D01*
X1009175Y3578834D01*
X1016204Y3591008D01*
X1019842Y3604586D01*
Y3618642D01*
X1016204Y3632220D01*
X1009175Y3644394D01*
X999236Y3654333D01*
X987062Y3661362D01*
X973484Y3665000D01*
D02*
G37*
G36*
X3671894Y3265000D02*
X3658106D01*
X3644582Y3262310D01*
X3631843Y3257033D01*
X3620378Y3249373D01*
X3610627Y3239622D01*
X3604429Y3230345D01*
X2785838D01*
X2783700Y3232483D01*
X2771594Y3239472D01*
X2758091Y3243090D01*
X2744113D01*
X2730610Y3239472D01*
X2718504Y3232483D01*
X2708619Y3222598D01*
X2701630Y3210492D01*
X2698012Y3196990D01*
Y3183010D01*
X2701630Y3169508D01*
X2708619Y3157402D01*
X2718504Y3147517D01*
X2730610Y3140528D01*
X2744113Y3136910D01*
X2758091D01*
X2771594Y3140528D01*
X2783700Y3147517D01*
X2785838Y3149655D01*
X3611350D01*
X3620378Y3140627D01*
X3631843Y3132967D01*
X3644582Y3127690D01*
X3658106Y3125000D01*
X3671894D01*
X3685418Y3127690D01*
X3698157Y3132967D01*
X3709622Y3140627D01*
X3719373Y3150378D01*
X3720476Y3152030D01*
X3727793Y3155060D01*
X3736148Y3161472D01*
X3742560Y3169827D01*
X3746590Y3179558D01*
X3747965Y3190000D01*
X3746590Y3200442D01*
X3742560Y3210173D01*
X3736148Y3218528D01*
X3728633Y3224295D01*
X3727033Y3228157D01*
X3719373Y3239622D01*
X3709622Y3249373D01*
X3698157Y3257033D01*
X3685418Y3262310D01*
X3671894Y3265000D01*
D02*
G37*
G36*
X2335000Y3370388D02*
X2305000D01*
X2293253Y3368842D01*
X2282306Y3364307D01*
X2272906Y3357094D01*
X2265693Y3347694D01*
X2261158Y3336747D01*
X2259612Y3325000D01*
X2261158Y3313253D01*
X2265693Y3302306D01*
X2272906Y3292906D01*
X2282306Y3285693D01*
X2293253Y3281158D01*
X2302263Y3279972D01*
Y3191721D01*
X2299299Y3190010D01*
X2289990Y3180701D01*
X2283407Y3169299D01*
X2280000Y3156583D01*
Y3143417D01*
X2283407Y3130701D01*
X2289990Y3119299D01*
X2299299Y3109990D01*
X2310701Y3103407D01*
X2323417Y3100000D01*
X2336583D01*
X2349299Y3103407D01*
X2360701Y3109990D01*
X2370010Y3119299D01*
X2376593Y3130701D01*
X2380000Y3143417D01*
Y3156583D01*
X2376593Y3169299D01*
X2370010Y3180701D01*
X2360701Y3190010D01*
X2357737Y3191721D01*
Y3285726D01*
X2367094Y3292906D01*
X2374307Y3302306D01*
X2378842Y3313253D01*
X2380388Y3325000D01*
X2378842Y3336747D01*
X2374307Y3347694D01*
X2367094Y3357094D01*
X2357694Y3364307D01*
X2346747Y3368842D01*
X2335000Y3370388D01*
D02*
G37*
G36*
X3671894Y3065000D02*
X3658106D01*
X3644582Y3062310D01*
X3631843Y3057033D01*
X3620378Y3049373D01*
X3610627Y3039622D01*
X3604429Y3030345D01*
X3346378D01*
X3335936Y3028970D01*
X3326205Y3024940D01*
X3317850Y3018528D01*
X3307078Y3007756D01*
X3303052D01*
X3289324Y3004078D01*
X3277016Y2996972D01*
X3266966Y2986922D01*
X3259860Y2974614D01*
X3256182Y2960886D01*
Y2946674D01*
X3259860Y2932946D01*
X3266966Y2920638D01*
X3277016Y2910588D01*
X3289324Y2903482D01*
X3303052Y2899804D01*
X3317264D01*
X3330992Y2903482D01*
X3343300Y2910588D01*
X3353350Y2920638D01*
X3360456Y2932946D01*
X3364134Y2946674D01*
Y2949655D01*
X3611350D01*
X3620378Y2940627D01*
X3631843Y2932967D01*
X3644582Y2927690D01*
X3658106Y2925000D01*
X3671894D01*
X3685418Y2927690D01*
X3698157Y2932967D01*
X3709622Y2940627D01*
X3719373Y2950378D01*
X3720476Y2952030D01*
X3727793Y2955060D01*
X3736148Y2961472D01*
X3742560Y2969827D01*
X3746590Y2979558D01*
X3747965Y2990000D01*
X3746590Y3000442D01*
X3742560Y3010173D01*
X3736148Y3018528D01*
X3728633Y3024295D01*
X3727033Y3028157D01*
X3719373Y3039622D01*
X3709622Y3049373D01*
X3698157Y3057033D01*
X3685418Y3062310D01*
X3671894Y3065000D01*
D02*
G37*
G36*
X1831583Y2720000D02*
X1818417D01*
X1805701Y2716593D01*
X1794299Y2710010D01*
X1784990Y2700701D01*
X1778408Y2689299D01*
X1775000Y2676583D01*
Y2663417D01*
X1778408Y2650701D01*
X1784990Y2639299D01*
X1794299Y2629990D01*
X1805701Y2623407D01*
X1818417Y2620000D01*
X1831583D01*
X1834888Y2620886D01*
X1845387Y2610387D01*
X1851131Y2605979D01*
X1857821Y2603208D01*
X1865000Y2602263D01*
X1985000D01*
Y2585000D01*
X2105000D01*
Y2675000D01*
X1985000D01*
Y2657737D01*
X1878115D01*
X1874609Y2661959D01*
X1875000Y2663417D01*
Y2676583D01*
X1871592Y2689299D01*
X1865010Y2700701D01*
X1855701Y2710010D01*
X1844299Y2716593D01*
X1831583Y2720000D01*
D02*
G37*
G36*
X2656583Y2890000D02*
X2643417D01*
X2630701Y2886593D01*
X2619299Y2880010D01*
X2609990Y2870701D01*
X2603407Y2859299D01*
X2600000Y2846583D01*
Y2833417D01*
X2603407Y2820701D01*
X2609990Y2809299D01*
X2619299Y2799990D01*
X2622263Y2798279D01*
Y2676489D01*
X2550387Y2604613D01*
X2545979Y2598869D01*
X2543208Y2592179D01*
X2542263Y2585000D01*
Y2540237D01*
X2528989D01*
X2422343Y2646883D01*
X2416598Y2651291D01*
X2409909Y2654062D01*
X2402730Y2655008D01*
X2397532D01*
X2392094Y2662094D01*
X2382694Y2669307D01*
X2371747Y2673842D01*
X2360000Y2675388D01*
X2330000D01*
X2318253Y2673842D01*
X2307306Y2669307D01*
X2297906Y2662094D01*
X2294562Y2657737D01*
X2250000D01*
X2242821Y2656792D01*
X2236131Y2654021D01*
X2230387Y2649613D01*
X2175387Y2594613D01*
X2170979Y2588869D01*
X2168208Y2582179D01*
X2167263Y2575000D01*
Y2511489D01*
X2125511Y2469737D01*
X1947000D01*
X1939821Y2468792D01*
X1933131Y2466021D01*
X1927387Y2461613D01*
X1834888Y2369114D01*
X1831583Y2370000D01*
X1818417D01*
X1805701Y2366593D01*
X1794299Y2360010D01*
X1784990Y2350701D01*
X1783279Y2347737D01*
X1081890D01*
X1074711Y2346792D01*
X1068021Y2344021D01*
X1062277Y2339613D01*
X705280Y1982617D01*
X695724Y1988134D01*
X682146Y1991772D01*
X668090D01*
X654512Y1988134D01*
X642338Y1981105D01*
X632399Y1971166D01*
X625370Y1958992D01*
X621732Y1945414D01*
Y1931358D01*
X625370Y1917780D01*
X632399Y1905606D01*
X642338Y1895667D01*
X654512Y1888638D01*
X668090Y1885000D01*
X682146D01*
X695724Y1888638D01*
X707898Y1895667D01*
X717837Y1905606D01*
X724866Y1917780D01*
X727051Y1925934D01*
X1093379Y2292263D01*
X1751503D01*
X1753417Y2287643D01*
X1715387Y2249613D01*
X1710979Y2243869D01*
X1708208Y2237179D01*
X1707263Y2230000D01*
Y2071721D01*
X1704299Y2070010D01*
X1694990Y2060701D01*
X1688408Y2049299D01*
X1685000Y2036583D01*
Y2023417D01*
X1688408Y2010701D01*
X1694990Y1999299D01*
X1704299Y1989990D01*
X1715701Y1983408D01*
X1728417Y1980000D01*
X1741583D01*
X1754299Y1983408D01*
X1765701Y1989990D01*
X1775010Y1999299D01*
X1781592Y2010701D01*
X1785000Y2023417D01*
Y2036583D01*
X1781592Y2049299D01*
X1775010Y2060701D01*
X1765701Y2070010D01*
X1762737Y2071721D01*
Y2218511D01*
X1815112Y2270886D01*
X1818417Y2270000D01*
X1831583D01*
X1844299Y2273407D01*
X1855701Y2279990D01*
X1865010Y2289299D01*
X1871592Y2300701D01*
X1875000Y2313417D01*
Y2326583D01*
X1874114Y2329888D01*
X1958489Y2414263D01*
X2137000D01*
X2144179Y2415208D01*
X2150869Y2417979D01*
X2156613Y2422387D01*
X2214613Y2480387D01*
X2219021Y2486131D01*
X2221792Y2492821D01*
X2222737Y2500000D01*
Y2563511D01*
X2261489Y2602263D01*
X2294562D01*
X2297906Y2597906D01*
X2307306Y2590693D01*
X2318253Y2586158D01*
X2330000Y2584612D01*
X2360000D01*
X2371747Y2586158D01*
X2382694Y2590693D01*
X2392094Y2597906D01*
X2392820Y2597953D01*
X2497887Y2492887D01*
X2503631Y2488479D01*
X2510321Y2485708D01*
X2515000Y2485092D01*
Y2463397D01*
X2510000Y2462058D01*
X2505010Y2470701D01*
X2495701Y2480010D01*
X2484299Y2486593D01*
X2471583Y2490000D01*
X2458417D01*
X2445701Y2486593D01*
X2434299Y2480010D01*
X2424990Y2470701D01*
X2418407Y2459299D01*
X2415000Y2446583D01*
Y2433417D01*
X2418407Y2420701D01*
X2424990Y2409299D01*
X2434299Y2399990D01*
X2437263Y2398279D01*
Y2286721D01*
X2434299Y2285010D01*
X2424990Y2275701D01*
X2418407Y2264299D01*
X2415000Y2251583D01*
Y2238417D01*
X2415886Y2235112D01*
X2409000Y2228226D01*
X2367613Y2269613D01*
X2361869Y2274021D01*
X2355179Y2276792D01*
X2348000Y2277737D01*
X2170000D01*
X2162821Y2276792D01*
X2156131Y2274021D01*
X2150387Y2269613D01*
X2109887Y2229113D01*
X2105479Y2223369D01*
X2105000Y2222213D01*
X2100000Y2223207D01*
Y2226583D01*
X2096593Y2239299D01*
X2090010Y2250701D01*
X2080701Y2260010D01*
X2069299Y2266593D01*
X2056583Y2270000D01*
X2043417D01*
X2040112Y2269114D01*
X2034003Y2275224D01*
Y2309010D01*
X2035701Y2309990D01*
X2045010Y2319299D01*
X2051593Y2330701D01*
X2055000Y2343417D01*
Y2356583D01*
X2051593Y2369299D01*
X2045010Y2380701D01*
X2035701Y2390010D01*
X2024299Y2396593D01*
X2011583Y2400000D01*
X1998417D01*
X1985701Y2396593D01*
X1974299Y2390010D01*
X1964990Y2380701D01*
X1958408Y2369299D01*
X1955000Y2356583D01*
Y2343417D01*
X1958408Y2330701D01*
X1964990Y2319299D01*
X1974299Y2309990D01*
X1978528Y2307549D01*
Y2295947D01*
X1973528Y2294607D01*
X1970010Y2300701D01*
X1960701Y2310010D01*
X1949299Y2316593D01*
X1936583Y2320000D01*
X1923417D01*
X1910701Y2316593D01*
X1899299Y2310010D01*
X1889990Y2300701D01*
X1883408Y2289299D01*
X1880000Y2276583D01*
Y2263417D01*
X1883408Y2250701D01*
X1889990Y2239299D01*
X1899299Y2229990D01*
X1904019Y2227265D01*
X1904588Y2213608D01*
X1901127Y2210000D01*
X1892500D01*
Y2165941D01*
X1887500Y2165614D01*
X1886277Y2174900D01*
X1881491Y2186455D01*
X1873877Y2196377D01*
X1863955Y2203991D01*
X1852400Y2208777D01*
X1840000Y2210410D01*
X1827600Y2208777D01*
X1816045Y2203991D01*
X1806123Y2196377D01*
X1798509Y2186455D01*
X1793723Y2174900D01*
X1792090Y2162500D01*
Y2127500D01*
X1793723Y2115100D01*
X1798509Y2103545D01*
X1806123Y2093623D01*
X1812263Y2088911D01*
Y2071721D01*
X1809299Y2070010D01*
X1799990Y2060701D01*
X1793408Y2049299D01*
X1790000Y2036583D01*
Y2023417D01*
X1793408Y2010701D01*
X1799990Y1999299D01*
X1809299Y1989990D01*
X1820701Y1983408D01*
X1833417Y1980000D01*
X1846583D01*
X1859299Y1983408D01*
X1870701Y1989990D01*
X1880010Y1999299D01*
X1886592Y2010701D01*
X1890000Y2023417D01*
Y2036583D01*
X1886592Y2049299D01*
X1880010Y2060701D01*
X1870701Y2070010D01*
X1867737Y2071721D01*
Y2088911D01*
X1873877Y2093623D01*
X1881491Y2103545D01*
X1886277Y2115100D01*
X1887500Y2124386D01*
X1892500Y2124059D01*
Y2080000D01*
X1983703D01*
X1985774Y2075000D01*
X1876897Y1966123D01*
X1610513D01*
X1607601Y1971166D01*
X1597662Y1981105D01*
X1585488Y1988134D01*
X1571910Y1991772D01*
X1557854D01*
X1544276Y1988134D01*
X1532102Y1981105D01*
X1522163Y1971166D01*
X1515134Y1958992D01*
X1511496Y1945414D01*
Y1931358D01*
X1515134Y1917780D01*
X1522163Y1905606D01*
X1532102Y1895667D01*
X1544276Y1888638D01*
X1557854Y1885000D01*
X1571910D01*
X1585488Y1888638D01*
X1597662Y1895667D01*
X1607601Y1905606D01*
X1610513Y1910649D01*
X1888386D01*
X1895565Y1911594D01*
X1902255Y1914365D01*
X1907999Y1918773D01*
X2136966Y2147740D01*
X2141586Y2145827D01*
Y2128000D01*
X2143235Y2115470D01*
X2148072Y2103793D01*
X2155766Y2093766D01*
X2162263Y2088781D01*
Y2061489D01*
X2143974Y2043201D01*
X2137206Y2043504D01*
X2130701Y2050010D01*
X2119299Y2056593D01*
X2106583Y2060000D01*
X2093417D01*
X2080701Y2056593D01*
X2069299Y2050010D01*
X2059990Y2040701D01*
X2053407Y2029299D01*
X2050000Y2016583D01*
Y2003417D01*
X2053407Y1990701D01*
X2059990Y1979299D01*
X2069299Y1969990D01*
X2080701Y1963408D01*
X2093417Y1960000D01*
X2106583D01*
X2119299Y1963408D01*
X2130701Y1969990D01*
X2140010Y1979299D01*
X2141721Y1982263D01*
X2150000D01*
X2157179Y1983208D01*
X2163869Y1985979D01*
X2169613Y1990387D01*
X2209613Y2030387D01*
X2214021Y2036131D01*
X2216792Y2042821D01*
X2217737Y2050000D01*
Y2088781D01*
X2224234Y2093766D01*
X2231928Y2103793D01*
X2236765Y2115470D01*
X2237478Y2120892D01*
X2242522D01*
X2243235Y2115470D01*
X2248072Y2103793D01*
X2255766Y2093766D01*
X2262263Y2088781D01*
Y2044645D01*
X2263208Y2037466D01*
X2265979Y2030776D01*
X2270387Y2025032D01*
X2285031Y2010387D01*
X2290776Y2005979D01*
X2297466Y2003208D01*
X2304645Y2002263D01*
X2545000D01*
X2552179Y2003208D01*
X2558869Y2005979D01*
X2564613Y2010387D01*
X2589613Y2035387D01*
X2594021Y2041131D01*
X2596792Y2047821D01*
X2597737Y2055000D01*
Y2080765D01*
X2601895Y2083543D01*
X2602704Y2083208D01*
X2609883Y2082263D01*
X2783530D01*
X2786650Y2076858D01*
X2796700Y2066808D01*
X2809008Y2059702D01*
X2822736Y2056024D01*
X2836948D01*
X2850676Y2059702D01*
X2862984Y2066808D01*
X2873034Y2076858D01*
X2880140Y2089166D01*
X2883818Y2102894D01*
Y2117106D01*
X2880140Y2130834D01*
X2873034Y2143142D01*
X2862984Y2153192D01*
X2850676Y2160298D01*
X2836948Y2163976D01*
X2822736D01*
X2809008Y2160298D01*
X2796700Y2153192D01*
X2786650Y2143142D01*
X2783530Y2137737D01*
X2625000D01*
Y2142241D01*
X2621252Y2156229D01*
X2614011Y2168771D01*
X2603771Y2179011D01*
X2591229Y2186252D01*
X2577241Y2190000D01*
X2562759D01*
X2548771Y2186252D01*
X2536229Y2179011D01*
X2525989Y2168771D01*
X2518748Y2156229D01*
X2515000Y2142241D01*
Y2127759D01*
X2518748Y2113771D01*
X2525989Y2101229D01*
X2536229Y2090989D01*
X2542263Y2087506D01*
Y2066489D01*
X2533511Y2057737D01*
X2317737D01*
Y2088781D01*
X2324234Y2093766D01*
X2331928Y2103793D01*
X2336765Y2115470D01*
X2337478Y2120892D01*
X2342522D01*
X2343235Y2115470D01*
X2348072Y2103793D01*
X2355766Y2093766D01*
X2365793Y2086072D01*
X2377470Y2081235D01*
X2390000Y2079586D01*
X2402530Y2081235D01*
X2414207Y2086072D01*
X2424234Y2093766D01*
X2431928Y2103793D01*
X2436765Y2115470D01*
X2438414Y2128000D01*
Y2162000D01*
X2436765Y2174530D01*
X2435884Y2176657D01*
X2455112Y2195886D01*
X2458417Y2195000D01*
X2471583D01*
X2484299Y2198407D01*
X2495701Y2204990D01*
X2505010Y2214299D01*
X2511593Y2225701D01*
X2515000Y2238417D01*
Y2251583D01*
X2511593Y2264299D01*
X2505010Y2275701D01*
X2495701Y2285010D01*
X2492737Y2286721D01*
Y2398279D01*
X2495701Y2399990D01*
X2505010Y2409299D01*
X2511593Y2420701D01*
X2512925Y2425675D01*
X2515000Y2430000D01*
Y2430000D01*
X2515000Y2430000D01*
X2625000D01*
Y2500774D01*
X2678929Y2554703D01*
X2775866D01*
Y2528464D01*
X2883818D01*
Y2636416D01*
X2775866D01*
Y2610177D01*
X2667440D01*
X2660261Y2609232D01*
X2653571Y2606461D01*
X2647827Y2602053D01*
X2602357Y2556583D01*
X2597737Y2558497D01*
Y2573511D01*
X2669613Y2645387D01*
X2674021Y2651131D01*
X2676792Y2657821D01*
X2677737Y2665000D01*
Y2798279D01*
X2680701Y2799990D01*
X2690010Y2809299D01*
X2696593Y2820701D01*
X2700000Y2833417D01*
Y2846583D01*
X2696593Y2859299D01*
X2690010Y2870701D01*
X2680701Y2880010D01*
X2669299Y2886593D01*
X2656583Y2890000D01*
D02*
G37*
G36*
X1941583Y2580000D02*
X1928417D01*
X1915701Y2576593D01*
X1904299Y2570010D01*
X1894990Y2560701D01*
X1888408Y2549299D01*
X1885000Y2536583D01*
Y2523417D01*
X1888408Y2510701D01*
X1894990Y2499299D01*
X1904299Y2489990D01*
X1915701Y2483407D01*
X1928417Y2480000D01*
X1941583D01*
X1954299Y2483407D01*
X1965701Y2489990D01*
X1975010Y2499299D01*
X1976721Y2502263D01*
X1994562D01*
X1997906Y2497906D01*
X2007306Y2490693D01*
X2018253Y2486158D01*
X2030000Y2484612D01*
X2060000D01*
X2071747Y2486158D01*
X2082694Y2490693D01*
X2092094Y2497906D01*
X2099307Y2507306D01*
X2103842Y2518253D01*
X2105388Y2530000D01*
X2103842Y2541747D01*
X2099307Y2552694D01*
X2092094Y2562094D01*
X2082694Y2569307D01*
X2071747Y2573842D01*
X2060000Y2575388D01*
X2030000D01*
X2018253Y2573842D01*
X2007306Y2569307D01*
X1997906Y2562094D01*
X1994562Y2557737D01*
X1976721D01*
X1975010Y2560701D01*
X1965701Y2570010D01*
X1954299Y2576593D01*
X1941583Y2580000D01*
D02*
G37*
G36*
X3317264Y2636416D02*
X3303052D01*
X3289324Y2632738D01*
X3277016Y2625632D01*
X3266966Y2615582D01*
X3259860Y2603274D01*
X3256182Y2589546D01*
Y2575334D01*
X3259860Y2561606D01*
X3266966Y2549298D01*
X3277016Y2539248D01*
X3289324Y2532142D01*
X3303052Y2528464D01*
X3307078D01*
X3324069Y2511472D01*
X3324070Y2511472D01*
X3332425Y2505060D01*
X3342156Y2501030D01*
X3352598Y2499655D01*
X3611350D01*
X3620378Y2490627D01*
X3631843Y2482967D01*
X3644582Y2477690D01*
X3658106Y2475000D01*
X3671894D01*
X3685418Y2477690D01*
X3698157Y2482967D01*
X3709622Y2490627D01*
X3719373Y2500378D01*
X3721479Y2503530D01*
X3725173Y2505060D01*
X3733528Y2511472D01*
X3739940Y2519827D01*
X3743970Y2529558D01*
X3745345Y2540000D01*
X3743970Y2550442D01*
X3739940Y2560173D01*
X3733528Y2568528D01*
X3729854Y2571348D01*
X3727033Y2578157D01*
X3719373Y2589622D01*
X3709622Y2599373D01*
X3698157Y2607033D01*
X3685418Y2612310D01*
X3671894Y2615000D01*
X3658106D01*
X3644582Y2612310D01*
X3631843Y2607033D01*
X3620378Y2599373D01*
X3610627Y2589622D01*
X3604429Y2580345D01*
X3369309D01*
X3364134Y2585520D01*
Y2589546D01*
X3360456Y2603274D01*
X3353350Y2615582D01*
X3343300Y2625632D01*
X3330992Y2632738D01*
X3317264Y2636416D01*
D02*
G37*
G36*
X3674514Y2412380D02*
X3660726D01*
X3647202Y2409690D01*
X3634463Y2404413D01*
X3622998Y2396753D01*
X3613247Y2387002D01*
X3612742Y2386247D01*
X2786157D01*
X2783700Y2388703D01*
X2771594Y2395693D01*
X2758091Y2399311D01*
X2744113D01*
X2730610Y2395693D01*
X2718504Y2388703D01*
X2708619Y2378818D01*
X2701630Y2366712D01*
X2698012Y2353209D01*
Y2339231D01*
X2701630Y2325728D01*
X2708619Y2313622D01*
X2718504Y2303737D01*
X2730610Y2296747D01*
X2744113Y2293130D01*
X2758091D01*
X2771594Y2296747D01*
X2783700Y2303737D01*
X2785519Y2305556D01*
X3608037D01*
X3613247Y2297758D01*
X3622998Y2288007D01*
X3634463Y2280347D01*
X3647202Y2275070D01*
X3660726Y2272380D01*
X3674514D01*
X3688038Y2275070D01*
X3700777Y2280347D01*
X3712242Y2288007D01*
X3721993Y2297758D01*
X3729653Y2309223D01*
X3734930Y2321962D01*
X3737195Y2333349D01*
X3738069Y2335459D01*
X3739444Y2345901D01*
X3738069Y2356343D01*
X3734039Y2366074D01*
X3733027Y2367392D01*
X3729653Y2375537D01*
X3721993Y2387002D01*
X3712242Y2396753D01*
X3700777Y2404413D01*
X3688038Y2409690D01*
X3674514Y2412380D01*
D02*
G37*
G36*
X2360000Y2575388D02*
X2330000D01*
X2318253Y2573842D01*
X2307306Y2569307D01*
X2297906Y2562094D01*
X2290693Y2552694D01*
X2286158Y2541747D01*
X2284612Y2530000D01*
X2286158Y2518253D01*
X2290693Y2507306D01*
X2297906Y2497906D01*
X2307306Y2490693D01*
X2318253Y2486158D01*
X2325358Y2485223D01*
Y2390621D01*
X2324299Y2390010D01*
X2314990Y2380701D01*
X2308407Y2369299D01*
X2305000Y2356583D01*
Y2343417D01*
X2308407Y2330701D01*
X2314990Y2319299D01*
X2324299Y2309990D01*
X2335701Y2303407D01*
X2348417Y2300000D01*
X2361583D01*
X2374299Y2303407D01*
X2385701Y2309990D01*
X2395010Y2319299D01*
X2401593Y2330701D01*
X2405000Y2343417D01*
Y2356583D01*
X2401593Y2369299D01*
X2395010Y2380701D01*
X2385701Y2390010D01*
X2380832Y2392821D01*
Y2489921D01*
X2382694Y2490693D01*
X2392094Y2497906D01*
X2399307Y2507306D01*
X2403842Y2518253D01*
X2405388Y2530000D01*
X2403842Y2541747D01*
X2399307Y2552694D01*
X2392094Y2562094D01*
X2382694Y2569307D01*
X2371747Y2573842D01*
X2360000Y2575388D01*
D02*
G37*
G36*
X3674514Y2212380D02*
X3660726D01*
X3647202Y2209690D01*
X3634463Y2204413D01*
X3622998Y2196753D01*
X3616590Y2190345D01*
X3357722D01*
X3347280Y2188970D01*
X3337549Y2184940D01*
X3329194Y2178528D01*
X3329193Y2178528D01*
X3314642Y2163976D01*
X3303052D01*
X3289324Y2160298D01*
X3277016Y2153192D01*
X3266966Y2143142D01*
X3259860Y2130834D01*
X3256182Y2117106D01*
Y2102894D01*
X3259860Y2089166D01*
X3266966Y2076858D01*
X3277016Y2066808D01*
X3289324Y2059702D01*
X3303052Y2056024D01*
X3317264D01*
X3330992Y2059702D01*
X3343300Y2066808D01*
X3353350Y2076858D01*
X3360456Y2089166D01*
X3362839Y2098061D01*
X3374434Y2109655D01*
X3605408D01*
X3605587Y2109223D01*
X3613247Y2097758D01*
X3622998Y2088007D01*
X3634463Y2080347D01*
X3647202Y2075070D01*
X3660726Y2072380D01*
X3674514D01*
X3688038Y2075070D01*
X3700777Y2080347D01*
X3712242Y2088007D01*
X3721993Y2097758D01*
X3724099Y2100910D01*
X3727793Y2102440D01*
X3736148Y2108852D01*
X3742560Y2117207D01*
X3746590Y2126938D01*
X3747965Y2137380D01*
X3746590Y2147822D01*
X3742560Y2157553D01*
X3736148Y2165908D01*
X3732474Y2168728D01*
X3729653Y2175537D01*
X3721993Y2187002D01*
X3712242Y2196753D01*
X3700777Y2204413D01*
X3688038Y2209690D01*
X3674514Y2212380D01*
D02*
G37*
G36*
X2945000Y1877737D02*
X470000D01*
X462821Y1876792D01*
X456132Y1874021D01*
X450387Y1869613D01*
X401213Y1820439D01*
X396805Y1814695D01*
X394034Y1808005D01*
X393089Y1800826D01*
Y1631767D01*
X387442Y1628507D01*
X377319Y1618384D01*
X373326Y1611468D01*
X368326D01*
X364333Y1618384D01*
X354210Y1628507D01*
X341812Y1635665D01*
X327984Y1639370D01*
X313668D01*
X299840Y1635665D01*
X287442Y1628507D01*
X277319Y1618384D01*
X270161Y1605986D01*
X266456Y1592158D01*
Y1577842D01*
X270161Y1564014D01*
X277319Y1551616D01*
X287442Y1541493D01*
X294531Y1537400D01*
Y1527732D01*
X295476Y1520553D01*
X298247Y1513863D01*
X302655Y1508119D01*
X355073Y1455701D01*
X353159Y1451081D01*
X107047D01*
X101195Y1449917D01*
X96233Y1446602D01*
X92918Y1441640D01*
X91753Y1435787D01*
Y739331D01*
X92918Y733478D01*
X96233Y728516D01*
X101195Y725201D01*
X107047Y724037D01*
X362559D01*
X368412Y725201D01*
X373373Y728516D01*
X376689Y733478D01*
X377853Y739331D01*
Y1426388D01*
X382472Y1428301D01*
X550387Y1260387D01*
X556131Y1255979D01*
X562821Y1253208D01*
X570000Y1252263D01*
X1847543D01*
X1848202Y1247263D01*
X1845701Y1246592D01*
X1834299Y1240010D01*
X1824990Y1230701D01*
X1818408Y1219299D01*
X1815000Y1206583D01*
Y1193417D01*
X1818408Y1180701D01*
X1824990Y1169299D01*
X1834299Y1159990D01*
X1837263Y1158279D01*
Y721489D01*
X1747915Y632141D01*
X1741812Y635665D01*
X1727984Y639370D01*
X1713668D01*
X1699840Y635665D01*
X1687442Y628507D01*
X1677319Y618384D01*
X1673326Y611468D01*
X1668326D01*
X1664333Y618384D01*
X1654210Y628507D01*
X1652737Y629357D01*
Y1028279D01*
X1655701Y1029990D01*
X1665010Y1039299D01*
X1671592Y1050701D01*
X1675000Y1063417D01*
Y1076583D01*
X1671592Y1089299D01*
X1665010Y1100701D01*
X1655701Y1110010D01*
X1644299Y1116592D01*
X1631583Y1120000D01*
X1618417D01*
X1605701Y1116592D01*
X1594299Y1110010D01*
X1584990Y1100701D01*
X1578408Y1089299D01*
X1575000Y1076583D01*
Y1063417D01*
X1578408Y1050701D01*
X1584990Y1039299D01*
X1594299Y1029990D01*
X1597263Y1028279D01*
Y634177D01*
X1587442Y628507D01*
X1577319Y618384D01*
X1573326Y611468D01*
X1568326D01*
X1564333Y618384D01*
X1554210Y628507D01*
X1541812Y635665D01*
X1527984Y639370D01*
X1513668D01*
X1499840Y635665D01*
X1487442Y628507D01*
X1477319Y618384D01*
X1473326Y611468D01*
X1468326D01*
X1464333Y618384D01*
X1454210Y628507D01*
X1441812Y635665D01*
X1427984Y639370D01*
X1413668D01*
X1399840Y635665D01*
X1387442Y628507D01*
X1377319Y618384D01*
X1373326Y611468D01*
X1368326D01*
X1364333Y618384D01*
X1354210Y628507D01*
X1341812Y635665D01*
X1327984Y639370D01*
X1313668D01*
X1299840Y635665D01*
X1287442Y628507D01*
X1277319Y618384D01*
X1273326Y611468D01*
X1268326D01*
X1264333Y618384D01*
X1254210Y628507D01*
X1241812Y635665D01*
X1227984Y639370D01*
X1213668D01*
X1199840Y635665D01*
X1187442Y628507D01*
X1177319Y618384D01*
X1173326Y611468D01*
X1168326D01*
X1164333Y618384D01*
X1154210Y628507D01*
X1141812Y635665D01*
X1127984Y639370D01*
X1113668D01*
X1099840Y635665D01*
X1087442Y628507D01*
X1077319Y618384D01*
X1073326Y611468D01*
X1068326D01*
X1064333Y618384D01*
X1054210Y628507D01*
X1041812Y635665D01*
X1027984Y639370D01*
X1013668D01*
X999840Y635665D01*
X987442Y628507D01*
X977319Y618384D01*
X973326Y611468D01*
X968326D01*
X964333Y618384D01*
X954210Y628507D01*
X941812Y635665D01*
X927984Y639370D01*
X913668D01*
X899840Y635665D01*
X887442Y628507D01*
X877319Y618384D01*
X873326Y611468D01*
X868326D01*
X864333Y618384D01*
X854210Y628507D01*
X841812Y635665D01*
X827984Y639370D01*
X813668D01*
X799840Y635665D01*
X787442Y628507D01*
X777319Y618384D01*
X773326Y611468D01*
X768326D01*
X764333Y618384D01*
X754210Y628507D01*
X741812Y635665D01*
X727984Y639370D01*
X713668D01*
X699840Y635665D01*
X687442Y628507D01*
X677319Y618384D01*
X673326Y611468D01*
X668326D01*
X664333Y618384D01*
X654210Y628507D01*
X641812Y635665D01*
X627984Y639370D01*
X613668D01*
X599840Y635665D01*
X587442Y628507D01*
X577319Y618384D01*
X573326Y611468D01*
X568326D01*
X564333Y618384D01*
X554210Y628507D01*
X541812Y635665D01*
X527984Y639370D01*
X513668D01*
X499840Y635665D01*
X487442Y628507D01*
X477319Y618384D01*
X473326Y611468D01*
X468326D01*
X464333Y618384D01*
X454210Y628507D01*
X441812Y635665D01*
X427984Y639370D01*
X413668D01*
X399840Y635665D01*
X387442Y628507D01*
X377319Y618384D01*
X373326Y611468D01*
X368326D01*
X364333Y618384D01*
X354210Y628507D01*
X341812Y635665D01*
X327984Y639370D01*
X313668D01*
X299840Y635665D01*
X287442Y628507D01*
X277319Y618384D01*
X270161Y605986D01*
X266456Y592158D01*
Y577842D01*
X270161Y564014D01*
X277319Y551616D01*
X287442Y541493D01*
X299840Y534335D01*
X313668Y530630D01*
X327984D01*
X341812Y534335D01*
X354210Y541493D01*
X364333Y551616D01*
X368326Y558532D01*
X373326D01*
X377319Y551616D01*
X387442Y541493D01*
X399840Y534335D01*
X413668Y530630D01*
X427984D01*
X441812Y534335D01*
X454210Y541493D01*
X464333Y551616D01*
X468326Y558532D01*
X473326D01*
X477319Y551616D01*
X487442Y541493D01*
X499840Y534335D01*
X513668Y530630D01*
X527984D01*
X541812Y534335D01*
X554210Y541493D01*
X564333Y551616D01*
X568326Y558532D01*
X573326D01*
X577319Y551616D01*
X587442Y541493D01*
X599840Y534335D01*
X613668Y530630D01*
X627984D01*
X641812Y534335D01*
X654210Y541493D01*
X664333Y551616D01*
X668326Y558532D01*
X673326D01*
X677319Y551616D01*
X687442Y541493D01*
X699840Y534335D01*
X713668Y530630D01*
X727984D01*
X741812Y534335D01*
X754210Y541493D01*
X764333Y551616D01*
X768326Y558532D01*
X773326D01*
X777319Y551616D01*
X787442Y541493D01*
X799840Y534335D01*
X813668Y530630D01*
X827984D01*
X841812Y534335D01*
X854210Y541493D01*
X864333Y551616D01*
X868326Y558532D01*
X873326D01*
X877319Y551616D01*
X887442Y541493D01*
X899840Y534335D01*
X913668Y530630D01*
X927984D01*
X941812Y534335D01*
X954210Y541493D01*
X964333Y551616D01*
X968326Y558532D01*
X973326D01*
X977319Y551616D01*
X987442Y541493D01*
X993089Y538233D01*
Y364174D01*
X994034Y356995D01*
X996805Y350305D01*
X1001213Y344561D01*
X1225387Y120387D01*
X1231131Y115979D01*
X1237821Y113208D01*
X1245000Y112263D01*
X3145000D01*
X3152179Y113208D01*
X3158869Y115979D01*
X3164613Y120387D01*
X3188613Y144387D01*
X3193021Y150131D01*
X3195792Y156821D01*
X3196737Y164000D01*
Y310392D01*
X3201236Y312990D01*
X3211010Y322764D01*
X3213608Y327263D01*
X3395392D01*
X3397990Y322764D01*
X3407764Y312990D01*
X3419736Y306078D01*
X3433088Y302500D01*
X3446912D01*
X3460264Y306078D01*
X3472236Y312990D01*
X3482010Y322764D01*
X3488922Y334736D01*
X3492500Y348088D01*
Y361912D01*
X3488922Y375264D01*
X3482010Y387236D01*
X3472236Y397010D01*
X3460264Y403922D01*
X3446912Y407500D01*
X3433088D01*
X3419736Y403922D01*
X3407764Y397010D01*
X3397990Y387236D01*
X3395392Y382737D01*
X3213608D01*
X3211010Y387236D01*
X3201236Y397010D01*
X3189264Y403922D01*
X3175912Y407500D01*
X3162088D01*
X3148736Y403922D01*
X3136764Y397010D01*
X3126990Y387236D01*
X3120078Y375264D01*
X3116500Y361912D01*
Y348088D01*
X3120078Y334736D01*
X3126990Y322764D01*
X3136764Y312990D01*
X3141263Y310392D01*
Y175489D01*
X3133511Y167737D01*
X1256489D01*
X1048563Y375663D01*
Y538233D01*
X1054210Y541493D01*
X1064333Y551616D01*
X1068326Y558532D01*
X1073326D01*
X1077319Y551616D01*
X1087442Y541493D01*
X1093089Y538233D01*
Y404174D01*
X1094034Y396995D01*
X1096805Y390305D01*
X1101213Y384561D01*
X1266387Y219387D01*
X1272131Y214979D01*
X1278821Y212208D01*
X1286000Y211263D01*
X2723142D01*
X2730321Y212208D01*
X2737011Y214979D01*
X2742755Y219387D01*
X2745299Y222701D01*
X2748613Y225245D01*
X2753021Y230989D01*
X2755792Y237679D01*
X2756737Y244858D01*
Y310392D01*
X2761236Y312990D01*
X2771010Y322764D01*
X2773608Y327263D01*
X2955392D01*
X2957990Y322764D01*
X2967764Y312990D01*
X2979736Y306078D01*
X2993088Y302500D01*
X3006912D01*
X3020264Y306078D01*
X3032236Y312990D01*
X3042010Y322764D01*
X3048922Y334736D01*
X3052500Y348088D01*
Y361912D01*
X3048922Y375264D01*
X3042010Y387236D01*
X3032236Y397010D01*
X3020264Y403922D01*
X3006912Y407500D01*
X2993088D01*
X2979736Y403922D01*
X2967764Y397010D01*
X2957990Y387236D01*
X2955392Y382737D01*
X2773608D01*
X2771010Y387236D01*
X2761236Y397010D01*
X2749264Y403922D01*
X2735912Y407500D01*
X2722088D01*
X2708736Y403922D01*
X2696764Y397010D01*
X2686990Y387236D01*
X2680078Y375264D01*
X2676500Y361912D01*
Y348088D01*
X2680078Y334736D01*
X2686990Y322764D01*
X2696764Y312990D01*
X2701263Y310392D01*
Y266737D01*
X1297489D01*
X1148563Y415663D01*
Y538233D01*
X1154210Y541493D01*
X1164333Y551616D01*
X1168326Y558532D01*
X1173326D01*
X1177319Y551616D01*
X1187442Y541493D01*
X1193089Y538233D01*
Y469174D01*
X1194034Y461995D01*
X1196805Y455305D01*
X1201213Y449561D01*
X1315387Y335387D01*
X1321131Y330979D01*
X1327821Y328208D01*
X1335000Y327263D01*
X2244392D01*
X2246990Y322764D01*
X2256764Y312990D01*
X2268736Y306078D01*
X2282088Y302500D01*
X2295912D01*
X2309264Y306078D01*
X2321236Y312990D01*
X2331010Y322764D01*
X2333608Y327263D01*
X2515392D01*
X2517990Y322764D01*
X2527764Y312990D01*
X2539736Y306078D01*
X2553088Y302500D01*
X2566912D01*
X2580264Y306078D01*
X2592236Y312990D01*
X2602010Y322764D01*
X2608922Y334736D01*
X2612500Y348088D01*
Y361912D01*
X2608922Y375264D01*
X2602010Y387236D01*
X2592236Y397010D01*
X2580264Y403922D01*
X2566912Y407500D01*
X2553088D01*
X2539736Y403922D01*
X2527764Y397010D01*
X2517990Y387236D01*
X2515392Y382737D01*
X2333608D01*
X2331010Y387236D01*
X2321236Y397010D01*
X2309264Y403922D01*
X2295912Y407500D01*
X2282088D01*
X2268736Y403922D01*
X2256764Y397010D01*
X2246990Y387236D01*
X2244392Y382737D01*
X1346489D01*
X1248563Y480663D01*
Y538233D01*
X1254210Y541493D01*
X1264333Y551616D01*
X1268326Y558532D01*
X1273326D01*
X1277319Y551616D01*
X1287442Y541493D01*
X1299840Y534335D01*
X1313668Y530630D01*
X1327984D01*
X1341812Y534335D01*
X1354210Y541493D01*
X1364333Y551616D01*
X1368326Y558532D01*
X1373326D01*
X1377319Y551616D01*
X1387442Y541493D01*
X1399840Y534335D01*
X1413668Y530630D01*
X1427984D01*
X1441812Y534335D01*
X1454210Y541493D01*
X1464333Y551616D01*
X1468326Y558532D01*
X1473326D01*
X1477319Y551616D01*
X1487442Y541493D01*
X1499840Y534335D01*
X1513668Y530630D01*
X1527984D01*
X1541812Y534335D01*
X1554210Y541493D01*
X1564333Y551616D01*
X1568326Y558532D01*
X1573326D01*
X1577319Y551616D01*
X1587442Y541493D01*
X1599840Y534335D01*
X1613668Y530630D01*
X1627984D01*
X1641812Y534335D01*
X1654210Y541493D01*
X1664333Y551616D01*
X1668326Y558532D01*
X1673326D01*
X1677319Y551616D01*
X1687442Y541493D01*
X1699840Y534335D01*
X1713668Y530630D01*
X1727984D01*
X1741812Y534335D01*
X1754210Y541493D01*
X1764333Y551616D01*
X1771491Y564014D01*
X1775196Y577842D01*
Y580970D01*
X1884613Y690387D01*
X1889021Y696131D01*
X1891792Y702821D01*
X1892737Y710000D01*
Y1158279D01*
X1895701Y1159990D01*
X1905010Y1169299D01*
X1911592Y1180701D01*
X1915000Y1193417D01*
Y1206583D01*
X1911592Y1219299D01*
X1905010Y1230701D01*
X1895701Y1240010D01*
X1884299Y1246592D01*
X1881798Y1247263D01*
X1882457Y1252263D01*
X3473756D01*
X3474084Y1247263D01*
X3466600Y1246277D01*
X3455045Y1241491D01*
X3445123Y1233877D01*
X3437509Y1223955D01*
X3432723Y1212400D01*
X3431090Y1200000D01*
Y1190000D01*
X3432723Y1177600D01*
X3437509Y1166045D01*
X3445123Y1156123D01*
X3451263Y1151411D01*
Y598441D01*
X3447296Y595397D01*
X3446912Y595500D01*
X3433088D01*
X3419736Y591922D01*
X3407764Y585010D01*
X3397990Y575236D01*
X3395392Y570737D01*
X3213608D01*
X3211010Y575236D01*
X3201236Y585010D01*
X3189264Y591922D01*
X3175912Y595500D01*
X3162088D01*
X3148736Y591922D01*
X3136764Y585010D01*
X3126990Y575236D01*
X3124392Y570737D01*
X3044608D01*
X3042010Y575236D01*
X3032236Y585010D01*
X3020264Y591922D01*
X3006912Y595500D01*
X2993088D01*
X2979736Y591922D01*
X2967764Y585010D01*
X2957990Y575236D01*
X2955392Y570737D01*
X2773608D01*
X2771010Y575236D01*
X2761236Y585010D01*
X2749264Y591922D01*
X2735912Y595500D01*
X2722088D01*
X2717071Y594156D01*
X2617737Y693489D01*
Y1028279D01*
X2620701Y1029990D01*
X2630010Y1039299D01*
X2636593Y1050701D01*
X2640000Y1063417D01*
Y1076583D01*
X2636593Y1089299D01*
X2630010Y1100701D01*
X2620701Y1110010D01*
X2609299Y1116592D01*
X2596583Y1120000D01*
X2583417D01*
X2570701Y1116592D01*
X2559299Y1110010D01*
X2549990Y1100701D01*
X2548279Y1097737D01*
X2471721D01*
X2470010Y1100701D01*
X2460701Y1110010D01*
X2449299Y1116592D01*
X2436583Y1120000D01*
X2423417D01*
X2410701Y1116592D01*
X2399299Y1110010D01*
X2389990Y1100701D01*
X2383407Y1089299D01*
X2380000Y1076583D01*
Y1063417D01*
X2383407Y1050701D01*
X2389990Y1039299D01*
X2399299Y1029990D01*
X2410701Y1023408D01*
X2423417Y1020000D01*
X2436583D01*
X2449299Y1023408D01*
X2460701Y1029990D01*
X2470010Y1039299D01*
X2471721Y1042263D01*
X2548279D01*
X2549990Y1039299D01*
X2559299Y1029990D01*
X2562263Y1028279D01*
Y682000D01*
X2563208Y674821D01*
X2565979Y668131D01*
X2570387Y662387D01*
X2657417Y575357D01*
X2655503Y570737D01*
X2604608D01*
X2602010Y575236D01*
X2592236Y585010D01*
X2580264Y591922D01*
X2566912Y595500D01*
X2553088D01*
X2539736Y591922D01*
X2527764Y585010D01*
X2517990Y575236D01*
X2515392Y570737D01*
X2333608D01*
X2331010Y575236D01*
X2321236Y585010D01*
X2309264Y591922D01*
X2295912Y595500D01*
X2282088D01*
X2268736Y591922D01*
X2256764Y585010D01*
X2246990Y575236D01*
X2240078Y563264D01*
X2236500Y549912D01*
Y536088D01*
X2240078Y522736D01*
X2246990Y510764D01*
X2256764Y500990D01*
X2268736Y494078D01*
X2282088Y490500D01*
X2295912D01*
X2309264Y494078D01*
X2321236Y500990D01*
X2331010Y510764D01*
X2333608Y515263D01*
X2515392D01*
X2517990Y510764D01*
X2527764Y500990D01*
X2539736Y494078D01*
X2553088Y490500D01*
X2566912D01*
X2580264Y494078D01*
X2592236Y500990D01*
X2602010Y510764D01*
X2604608Y515263D01*
X2684392D01*
X2686990Y510764D01*
X2696764Y500990D01*
X2708736Y494078D01*
X2722088Y490500D01*
X2735912D01*
X2749264Y494078D01*
X2761236Y500990D01*
X2771010Y510764D01*
X2773608Y515263D01*
X2955392D01*
X2957990Y510764D01*
X2967764Y500990D01*
X2979736Y494078D01*
X2993088Y490500D01*
X3006912D01*
X3020264Y494078D01*
X3032236Y500990D01*
X3042010Y510764D01*
X3044608Y515263D01*
X3124392D01*
X3126990Y510764D01*
X3136764Y500990D01*
X3148736Y494078D01*
X3162088Y490500D01*
X3175912D01*
X3189264Y494078D01*
X3201236Y500990D01*
X3211010Y510764D01*
X3213608Y515263D01*
X3395392D01*
X3397990Y510764D01*
X3407764Y500990D01*
X3419736Y494078D01*
X3433088Y490500D01*
X3446912D01*
X3460264Y494078D01*
X3472236Y500990D01*
X3482010Y510764D01*
X3488922Y522736D01*
X3492500Y536088D01*
Y549912D01*
X3491156Y554929D01*
X3498613Y562387D01*
X3503021Y568131D01*
X3505792Y574821D01*
X3506737Y582000D01*
Y1151411D01*
X3512877Y1156123D01*
X3520491Y1166045D01*
X3525277Y1177600D01*
X3526910Y1190000D01*
Y1200000D01*
X3525277Y1212400D01*
X3520491Y1223955D01*
X3512877Y1233877D01*
X3502955Y1241491D01*
X3491400Y1246277D01*
X3483916Y1247263D01*
X3484244Y1252263D01*
X3552263D01*
Y1238589D01*
X3546123Y1233877D01*
X3538509Y1223955D01*
X3533723Y1212400D01*
X3532090Y1200000D01*
Y1190000D01*
X3533723Y1177600D01*
X3538509Y1166045D01*
X3546123Y1156123D01*
X3552263Y1151411D01*
Y685000D01*
X3553208Y677821D01*
X3555979Y671131D01*
X3560387Y665387D01*
X3585387Y640387D01*
X3591131Y635979D01*
X3597821Y633208D01*
X3605000Y632263D01*
X3644098D01*
X3652369Y623991D01*
X3662631Y618067D01*
X3674076Y615000D01*
X3685924D01*
X3697369Y618067D01*
X3707631Y623991D01*
X3716009Y632369D01*
X3721933Y642631D01*
X3725000Y654076D01*
Y665924D01*
X3721933Y677369D01*
X3716009Y687631D01*
X3707631Y696009D01*
X3697369Y701933D01*
X3685924Y705000D01*
X3674076D01*
X3662631Y701933D01*
X3652369Y696009D01*
X3644098Y687737D01*
X3616489D01*
X3607737Y696489D01*
Y1151411D01*
X3613877Y1156123D01*
X3621491Y1166045D01*
X3626277Y1177600D01*
X3626478Y1179127D01*
X3631522D01*
X3631723Y1177600D01*
X3636509Y1166045D01*
X3644123Y1156123D01*
X3652263Y1149876D01*
Y1045902D01*
X3643991Y1037631D01*
X3638067Y1027369D01*
X3635000Y1015924D01*
Y1004076D01*
X3638067Y992631D01*
X3643991Y982369D01*
X3652369Y973991D01*
X3662631Y968067D01*
X3674076Y965000D01*
X3685924D01*
X3697369Y968067D01*
X3707631Y973991D01*
X3716009Y982369D01*
X3721933Y992631D01*
X3725000Y1004076D01*
Y1015924D01*
X3721933Y1027369D01*
X3716009Y1037631D01*
X3707737Y1045902D01*
Y1152946D01*
X3711877Y1156123D01*
X3719491Y1166045D01*
X3724277Y1177600D01*
X3725910Y1190000D01*
Y1200000D01*
X3724277Y1212400D01*
X3719491Y1223955D01*
X3711877Y1233877D01*
X3705737Y1238589D01*
Y1300000D01*
X3704792Y1307179D01*
X3702021Y1313869D01*
X3697613Y1319613D01*
X3647613Y1369613D01*
X3641869Y1374021D01*
X3635179Y1376792D01*
X3628000Y1377737D01*
X2707737D01*
Y1612299D01*
X2715757Y1620319D01*
X2721640Y1630508D01*
X2724685Y1641873D01*
Y1653639D01*
X2721640Y1665004D01*
X2715757Y1675193D01*
X2707437Y1683513D01*
X2697248Y1689396D01*
X2685883Y1692441D01*
X2674117D01*
X2662752Y1689396D01*
X2652563Y1683513D01*
X2644243Y1675193D01*
X2638360Y1665004D01*
X2635315Y1653639D01*
Y1641873D01*
X2638360Y1630508D01*
X2644243Y1620319D01*
X2652263Y1612299D01*
Y1377737D01*
X2517946D01*
X2426070Y1469613D01*
X2420325Y1474021D01*
X2413635Y1476792D01*
X2406456Y1477737D01*
X1867315D01*
X1775196Y1569856D01*
Y1639370D01*
X1666456D01*
Y1623332D01*
X1661456Y1621261D01*
X1654210Y1628507D01*
X1641812Y1635665D01*
X1627984Y1639370D01*
X1613668D01*
X1599840Y1635665D01*
X1587442Y1628507D01*
X1577319Y1618384D01*
X1573326Y1611468D01*
X1568326D01*
X1564333Y1618384D01*
X1554210Y1628507D01*
X1541812Y1635665D01*
X1527984Y1639370D01*
X1513668D01*
X1499840Y1635665D01*
X1487442Y1628507D01*
X1477319Y1618384D01*
X1473326Y1611468D01*
X1468326D01*
X1464333Y1618384D01*
X1454210Y1628507D01*
X1441812Y1635665D01*
X1427984Y1639370D01*
X1413668D01*
X1399840Y1635665D01*
X1387442Y1628507D01*
X1377319Y1618384D01*
X1373326Y1611468D01*
X1368326D01*
X1364333Y1618384D01*
X1354210Y1628507D01*
X1341812Y1635665D01*
X1327984Y1639370D01*
X1313668D01*
X1299840Y1635665D01*
X1287442Y1628507D01*
X1277319Y1618384D01*
X1273326Y1611468D01*
X1268326D01*
X1264333Y1618384D01*
X1254210Y1628507D01*
X1241812Y1635665D01*
X1227984Y1639370D01*
X1213668D01*
X1199840Y1635665D01*
X1187442Y1628507D01*
X1177319Y1618384D01*
X1173326Y1611468D01*
X1168326D01*
X1164333Y1618384D01*
X1154210Y1628507D01*
X1141812Y1635665D01*
X1127984Y1639370D01*
X1113668D01*
X1099840Y1635665D01*
X1087442Y1628507D01*
X1077319Y1618384D01*
X1073326Y1611468D01*
X1068326D01*
X1064333Y1618384D01*
X1054210Y1628507D01*
X1041812Y1635665D01*
X1027984Y1639370D01*
X1013668D01*
X999840Y1635665D01*
X987442Y1628507D01*
X977319Y1618384D01*
X973326Y1611468D01*
X968326D01*
X964333Y1618384D01*
X954210Y1628507D01*
X941812Y1635665D01*
X927984Y1639370D01*
X913668D01*
X899840Y1635665D01*
X887442Y1628507D01*
X877319Y1618384D01*
X873326Y1611468D01*
X868326D01*
X864333Y1618384D01*
X854210Y1628507D01*
X847737Y1632244D01*
Y1638279D01*
X850701Y1639990D01*
X860010Y1649299D01*
X866592Y1660701D01*
X870000Y1673417D01*
Y1686583D01*
X866592Y1699299D01*
X860010Y1710701D01*
X850701Y1720010D01*
X839299Y1726592D01*
X826583Y1730000D01*
X813417D01*
X800701Y1726592D01*
X789299Y1720010D01*
X779990Y1710701D01*
X773408Y1699299D01*
X770000Y1686583D01*
Y1673417D01*
X773408Y1660701D01*
X779990Y1649299D01*
X789299Y1639990D01*
X792263Y1638279D01*
Y1631290D01*
X787442Y1628507D01*
X777319Y1618384D01*
X773326Y1611468D01*
X768326D01*
X764333Y1618384D01*
X754210Y1628507D01*
X748563Y1631767D01*
Y1742263D01*
X2852263D01*
Y1683213D01*
X2844243Y1675193D01*
X2838360Y1665004D01*
X2835315Y1653639D01*
Y1641873D01*
X2838360Y1630508D01*
X2844243Y1620319D01*
X2852563Y1611999D01*
X2862752Y1606116D01*
X2874117Y1603071D01*
X2885883D01*
X2897248Y1606116D01*
X2907437Y1611999D01*
X2915757Y1620319D01*
X2921640Y1630508D01*
X2924685Y1641873D01*
Y1653639D01*
X2921640Y1665004D01*
X2915757Y1675193D01*
X2907737Y1683213D01*
Y1755000D01*
X2906792Y1762179D01*
X2904021Y1768869D01*
X2899613Y1774613D01*
X2884613Y1789613D01*
X2878869Y1794021D01*
X2872179Y1796792D01*
X2865000Y1797737D01*
X735471D01*
X728292Y1796792D01*
X721602Y1794021D01*
X715857Y1789613D01*
X701213Y1774968D01*
X696805Y1769224D01*
X694034Y1762534D01*
X693089Y1755355D01*
Y1631767D01*
X687442Y1628507D01*
X677319Y1618384D01*
X673326Y1611468D01*
X668326D01*
X664333Y1618384D01*
X654210Y1628507D01*
X641812Y1635665D01*
X627984Y1639370D01*
X613668D01*
X599840Y1635665D01*
X587442Y1628507D01*
X577319Y1618384D01*
X573326Y1611468D01*
X568326D01*
X564333Y1618384D01*
X554210Y1628507D01*
X541812Y1635665D01*
X527984Y1639370D01*
X513668D01*
X499840Y1635665D01*
X487442Y1628507D01*
X477319Y1618384D01*
X473326Y1611468D01*
X468326D01*
X464333Y1618384D01*
X454210Y1628507D01*
X448563Y1631767D01*
Y1789337D01*
X481489Y1822263D01*
X2933511D01*
X2947263Y1808511D01*
Y1582737D01*
X2816489D01*
X2807737Y1591489D01*
Y1612299D01*
X2815757Y1620319D01*
X2821640Y1630508D01*
X2824685Y1641873D01*
Y1653639D01*
X2821640Y1665004D01*
X2815757Y1675193D01*
X2807437Y1683513D01*
X2797248Y1689396D01*
X2785883Y1692441D01*
X2774117D01*
X2762752Y1689396D01*
X2752563Y1683513D01*
X2744243Y1675193D01*
X2738360Y1665004D01*
X2735315Y1653639D01*
Y1641873D01*
X2738360Y1630508D01*
X2744243Y1620319D01*
X2752263Y1612299D01*
Y1580000D01*
X2753208Y1572821D01*
X2755979Y1566131D01*
X2760387Y1560387D01*
X2785387Y1535387D01*
X2791131Y1530979D01*
X2797821Y1528208D01*
X2805000Y1527263D01*
X2960355D01*
X2967534Y1528208D01*
X2974224Y1530979D01*
X2979968Y1535387D01*
X2994613Y1550031D01*
X2999021Y1555776D01*
X3001792Y1562466D01*
X3002737Y1569645D01*
Y1820000D01*
X3001792Y1827179D01*
X2999021Y1833869D01*
X2994613Y1839613D01*
X2964613Y1869613D01*
X2958869Y1874021D01*
X2952179Y1876792D01*
X2945000Y1877737D01*
D02*
G37*
G36*
X3170364Y1702125D02*
X3155776D01*
X3141469Y1699279D01*
X3127992Y1693697D01*
X3115863Y1685592D01*
X3105548Y1675277D01*
X3097443Y1663148D01*
X3091861Y1649671D01*
X3089015Y1635364D01*
Y1620776D01*
X3091861Y1606469D01*
X3097443Y1592992D01*
X3105548Y1580863D01*
X3115863Y1570548D01*
X3127992Y1562443D01*
X3141469Y1556861D01*
X3155776Y1554015D01*
X3170364D01*
X3184671Y1556861D01*
X3198148Y1562443D01*
X3210277Y1570548D01*
X3220592Y1580863D01*
X3228697Y1592992D01*
X3234279Y1606469D01*
X3237125Y1620776D01*
Y1635364D01*
X3234279Y1649671D01*
X3228697Y1663148D01*
X3220592Y1675277D01*
X3210277Y1685592D01*
X3198148Y1693697D01*
X3184671Y1699279D01*
X3170364Y1702125D01*
D02*
G37*
G36*
X2304224D02*
X2289636D01*
X2275329Y1699279D01*
X2261852Y1693697D01*
X2249723Y1685592D01*
X2239408Y1675277D01*
X2231303Y1663148D01*
X2225721Y1649671D01*
X2222875Y1635364D01*
Y1620776D01*
X2225721Y1606469D01*
X2231303Y1592992D01*
X2239408Y1580863D01*
X2249723Y1570548D01*
X2261852Y1562443D01*
X2275329Y1556861D01*
X2289636Y1554015D01*
X2304224D01*
X2318531Y1556861D01*
X2332008Y1562443D01*
X2344137Y1570548D01*
X2354452Y1580863D01*
X2362557Y1592992D01*
X2368139Y1606469D01*
X2370985Y1620776D01*
Y1635364D01*
X2368139Y1649671D01*
X2362557Y1663148D01*
X2354452Y1675277D01*
X2344137Y1685592D01*
X2332008Y1693697D01*
X2318531Y1699279D01*
X2304224Y1702125D01*
D02*
G37*
G36*
X2041506Y1642519D02*
X2026918D01*
X2012611Y1639673D01*
X1999134Y1634091D01*
X1987005Y1625986D01*
X1976690Y1615671D01*
X1968585Y1603542D01*
X1963003Y1590065D01*
X1960157Y1575758D01*
Y1561170D01*
X1963003Y1546863D01*
X1968585Y1533386D01*
X1976690Y1521257D01*
X1987005Y1510942D01*
X1999134Y1502837D01*
X2012611Y1497255D01*
X2026918Y1494409D01*
X2041506D01*
X2055813Y1497255D01*
X2069290Y1502837D01*
X2081419Y1510942D01*
X2091734Y1521257D01*
X2099839Y1533386D01*
X2105421Y1546863D01*
X2108267Y1561170D01*
Y1575758D01*
X2105421Y1590065D01*
X2099839Y1603542D01*
X2091734Y1615671D01*
X2081419Y1625986D01*
X2069290Y1634091D01*
X2055813Y1639673D01*
X2041506Y1642519D01*
D02*
G37*
G36*
X193082D02*
X178494D01*
X164187Y1639673D01*
X150710Y1634091D01*
X138581Y1625986D01*
X128266Y1615671D01*
X120161Y1603542D01*
X114579Y1590065D01*
X111733Y1575758D01*
Y1561170D01*
X114579Y1546863D01*
X120161Y1533386D01*
X128266Y1521257D01*
X138581Y1510942D01*
X150710Y1502837D01*
X164187Y1497255D01*
X178494Y1494409D01*
X193082D01*
X207389Y1497255D01*
X220866Y1502837D01*
X232995Y1510942D01*
X243310Y1521257D01*
X251415Y1533386D01*
X256997Y1546863D01*
X259843Y1561170D01*
Y1575758D01*
X256997Y1590065D01*
X251415Y1603542D01*
X243310Y1615671D01*
X232995Y1625986D01*
X220866Y1634091D01*
X207389Y1639673D01*
X193082Y1642519D01*
D02*
G37*
G36*
X2475461Y1698878D02*
X2462295D01*
X2449579Y1695470D01*
X2438177Y1688888D01*
X2428868Y1679579D01*
X2422285Y1668177D01*
X2418878Y1655461D01*
Y1642295D01*
X2422285Y1629579D01*
X2428868Y1618177D01*
X2438177Y1608868D01*
X2449579Y1602285D01*
X2462295Y1598878D01*
X2475461D01*
X2488177Y1602285D01*
X2499579Y1608868D01*
X2508888Y1618177D01*
X2509951Y1620019D01*
X2535315D01*
Y1603071D01*
X2567263D01*
Y1476721D01*
X2564299Y1475010D01*
X2554990Y1465701D01*
X2548407Y1454299D01*
X2545000Y1441583D01*
Y1428417D01*
X2548407Y1415701D01*
X2554990Y1404299D01*
X2564299Y1394990D01*
X2575701Y1388408D01*
X2588417Y1385000D01*
X2601583D01*
X2614299Y1388408D01*
X2625701Y1394990D01*
X2635010Y1404299D01*
X2641593Y1415701D01*
X2645000Y1428417D01*
Y1441583D01*
X2641593Y1454299D01*
X2635010Y1465701D01*
X2625701Y1475010D01*
X2622737Y1476721D01*
Y1603071D01*
X2624685D01*
Y1692441D01*
X2535315D01*
Y1675493D01*
X2511247D01*
X2508888Y1679579D01*
X2499579Y1688888D01*
X2488177Y1695470D01*
X2475461Y1698878D01*
D02*
G37*
G36*
X3170364Y835985D02*
X3155776D01*
X3141469Y833139D01*
X3127992Y827557D01*
X3115863Y819452D01*
X3105548Y809137D01*
X3097443Y797008D01*
X3091861Y783531D01*
X3089015Y769224D01*
Y754636D01*
X3091861Y740329D01*
X3097443Y726852D01*
X3105548Y714723D01*
X3115863Y704408D01*
X3127992Y696303D01*
X3141469Y690721D01*
X3155776Y687875D01*
X3170364D01*
X3184671Y690721D01*
X3198148Y696303D01*
X3210277Y704408D01*
X3220592Y714723D01*
X3228697Y726852D01*
X3234279Y740329D01*
X3237125Y754636D01*
Y769224D01*
X3234279Y783531D01*
X3228697Y797008D01*
X3220592Y809137D01*
X3210277Y819452D01*
X3198148Y827557D01*
X3184671Y833139D01*
X3170364Y835985D01*
D02*
G37*
G36*
X2304224D02*
X2289636D01*
X2275329Y833139D01*
X2261852Y827557D01*
X2249723Y819452D01*
X2239408Y809137D01*
X2231303Y797008D01*
X2225721Y783531D01*
X2222875Y769224D01*
Y754636D01*
X2225721Y740329D01*
X2231303Y726852D01*
X2239408Y714723D01*
X2249723Y704408D01*
X2261852Y696303D01*
X2275329Y690721D01*
X2289636Y687875D01*
X2304224D01*
X2318531Y690721D01*
X2332008Y696303D01*
X2344137Y704408D01*
X2354452Y714723D01*
X2362557Y726852D01*
X2368139Y740329D01*
X2370985Y754636D01*
Y769224D01*
X2368139Y783531D01*
X2362557Y797008D01*
X2354452Y809137D01*
X2344137Y819452D01*
X2332008Y827557D01*
X2318531Y833139D01*
X2304224Y835985D01*
D02*
G37*
G36*
X2041506Y677559D02*
X2026918D01*
X2012611Y674713D01*
X1999134Y669131D01*
X1987005Y661026D01*
X1976690Y650711D01*
X1968585Y638582D01*
X1963003Y625105D01*
X1960157Y610798D01*
Y596210D01*
X1963003Y581903D01*
X1968585Y568426D01*
X1976690Y556297D01*
X1987005Y545982D01*
X1999134Y537877D01*
X2012611Y532295D01*
X2026918Y529449D01*
X2041506D01*
X2055813Y532295D01*
X2069290Y537877D01*
X2081419Y545982D01*
X2091734Y556297D01*
X2099839Y568426D01*
X2105421Y581903D01*
X2108267Y596210D01*
Y610798D01*
X2105421Y625105D01*
X2099839Y638582D01*
X2091734Y650711D01*
X2081419Y661026D01*
X2069290Y669131D01*
X2055813Y674713D01*
X2041506Y677559D01*
D02*
G37*
G36*
X193082D02*
X178494D01*
X164187Y674713D01*
X150710Y669131D01*
X138581Y661026D01*
X128266Y650711D01*
X120161Y638582D01*
X114579Y625105D01*
X111733Y610798D01*
Y596210D01*
X114579Y581903D01*
X120161Y568426D01*
X128266Y556297D01*
X138581Y545982D01*
X150710Y537877D01*
X164187Y532295D01*
X178494Y529449D01*
X193082D01*
X207389Y532295D01*
X220866Y537877D01*
X232995Y545982D01*
X243310Y556297D01*
X251415Y568426D01*
X256997Y581903D01*
X259843Y596210D01*
Y610798D01*
X256997Y625105D01*
X251415Y638582D01*
X243310Y650711D01*
X232995Y661026D01*
X220866Y669131D01*
X207389Y674713D01*
X193082Y677559D01*
D02*
G37*
G36*
X177294Y239055D02*
X162706D01*
X148399Y236209D01*
X134922Y230627D01*
X122793Y222522D01*
X112478Y212207D01*
X104373Y200078D01*
X98791Y186601D01*
X95945Y172294D01*
Y157706D01*
X98791Y143399D01*
X104373Y129922D01*
X112478Y117793D01*
X122793Y107478D01*
X134922Y99373D01*
X148399Y93791D01*
X162706Y90945D01*
X177294D01*
X191601Y93791D01*
X205078Y99373D01*
X217207Y107478D01*
X227522Y117793D01*
X235627Y129922D01*
X241209Y143399D01*
X244055Y157706D01*
Y172294D01*
X241209Y186601D01*
X235627Y200078D01*
X227522Y212207D01*
X217207Y222522D01*
X205078Y230627D01*
X191601Y236209D01*
X177294Y239055D01*
D02*
G37*
G36*
X3752294Y204055D02*
X3737706D01*
X3723399Y201209D01*
X3709922Y195627D01*
X3697793Y187522D01*
X3687478Y177207D01*
X3679373Y165078D01*
X3673791Y151601D01*
X3670945Y137294D01*
Y122706D01*
X3673791Y108399D01*
X3679373Y94922D01*
X3687478Y82793D01*
X3697793Y72478D01*
X3709922Y64373D01*
X3723399Y58791D01*
X3737706Y55945D01*
X3752294D01*
X3766601Y58791D01*
X3780078Y64373D01*
X3792207Y72478D01*
X3802522Y82793D01*
X3810627Y94922D01*
X3816209Y108399D01*
X3819055Y122706D01*
Y137294D01*
X3816209Y151601D01*
X3810627Y165078D01*
X3802522Y177207D01*
X3792207Y187522D01*
X3780078Y195627D01*
X3766601Y201209D01*
X3752294Y204055D01*
D02*
G37*
%LPD*%
G36*
X2318235Y2920470D02*
X2323072Y2908793D01*
X2330766Y2898766D01*
X2340793Y2891072D01*
X2352470Y2886235D01*
X2365000Y2884586D01*
X2377530Y2886235D01*
X2389207Y2891072D01*
X2399234Y2898766D01*
X2406928Y2908793D01*
X2411284Y2919310D01*
X2424979D01*
X2429299Y2914990D01*
X2440701Y2908407D01*
X2453417Y2905000D01*
X2466583D01*
X2476309Y2907606D01*
X2478897Y2903123D01*
X2413511Y2837737D01*
X2292737D01*
Y2893781D01*
X2299234Y2898766D01*
X2306928Y2908793D01*
X2311765Y2920470D01*
X2312478Y2925892D01*
X2317522D01*
X2318235Y2920470D01*
D02*
G37*
G36*
X2356918Y2201856D02*
X2356590Y2196867D01*
X2355766Y2196234D01*
X2348072Y2186207D01*
X2343235Y2174530D01*
X2342522Y2169108D01*
X2337478D01*
X2336765Y2174530D01*
X2331928Y2186207D01*
X2324234Y2196234D01*
X2314207Y2203928D01*
X2302530Y2208765D01*
X2290000Y2210414D01*
X2277470Y2208765D01*
X2265793Y2203928D01*
X2255766Y2196234D01*
X2248072Y2186207D01*
X2243235Y2174530D01*
X2242522Y2169108D01*
X2237478D01*
X2236765Y2174530D01*
X2231928Y2186207D01*
X2224234Y2196234D01*
X2214207Y2203928D01*
X2202530Y2208765D01*
X2190000Y2210414D01*
X2177470Y2208765D01*
X2173360Y2207062D01*
X2170528Y2211301D01*
X2181489Y2222263D01*
X2336511D01*
X2356918Y2201856D01*
D02*
G37*
G36*
X1982244Y2249866D02*
X1986652Y2244122D01*
X2000886Y2229888D01*
X2000000Y2226583D01*
Y2213417D01*
X2003408Y2200701D01*
X2009990Y2189299D01*
X2019299Y2179990D01*
X2030701Y2173407D01*
X2043417Y2170000D01*
X2056583D01*
X2069299Y2173407D01*
X2080701Y2179990D01*
X2090010Y2189299D01*
X2096593Y2200701D01*
X2096763Y2201336D01*
X2101763Y2200677D01*
Y2190989D01*
X1992500Y2081726D01*
X1987500Y2083798D01*
Y2210000D01*
X1960261D01*
X1959458Y2229273D01*
X1960701Y2229990D01*
X1970010Y2239299D01*
X1976531Y2250594D01*
X1976989Y2250715D01*
X1981820Y2250890D01*
X1982244Y2249866D01*
D02*
G37*
G36*
X1577319Y1551616D02*
X1587442Y1541493D01*
X1599840Y1534335D01*
X1613668Y1530630D01*
X1627984D01*
X1641812Y1534335D01*
X1654210Y1541493D01*
X1661456Y1548739D01*
X1666456Y1546668D01*
Y1530630D01*
X1735970D01*
X1836213Y1430387D01*
X1841957Y1425979D01*
X1848647Y1423208D01*
X1855826Y1422263D01*
X2394967D01*
X2486843Y1330387D01*
X2492588Y1325979D01*
X2499278Y1323208D01*
X2506456Y1322263D01*
X3616511D01*
X3650263Y1288511D01*
Y1238589D01*
X3644123Y1233877D01*
X3636509Y1223955D01*
X3631723Y1212400D01*
X3631522Y1210873D01*
X3626478D01*
X3626277Y1212400D01*
X3621491Y1223955D01*
X3613877Y1233877D01*
X3607737Y1238589D01*
Y1265355D01*
X3606792Y1272534D01*
X3604021Y1279224D01*
X3599613Y1284969D01*
X3584968Y1299613D01*
X3579224Y1304021D01*
X3572534Y1306792D01*
X3565355Y1307737D01*
X1988139D01*
X1986799Y1312737D01*
X1990701Y1314990D01*
X2000010Y1324299D01*
X2006592Y1335701D01*
X2010000Y1348417D01*
Y1361583D01*
X2006592Y1374299D01*
X2000010Y1385701D01*
X1990701Y1395010D01*
X1979299Y1401592D01*
X1966583Y1405000D01*
X1953417D01*
X1940701Y1401592D01*
X1929299Y1395010D01*
X1919990Y1385701D01*
X1918279Y1382737D01*
X991489D01*
X948563Y1425663D01*
Y1538233D01*
X954210Y1541493D01*
X964333Y1551616D01*
X968326Y1558532D01*
X973326D01*
X977319Y1551616D01*
X987442Y1541493D01*
X999840Y1534335D01*
X1013668Y1530630D01*
X1027984D01*
X1041812Y1534335D01*
X1054210Y1541493D01*
X1064333Y1551616D01*
X1068326Y1558532D01*
X1073326D01*
X1077319Y1551616D01*
X1087442Y1541493D01*
X1099840Y1534335D01*
X1113668Y1530630D01*
X1127984D01*
X1141812Y1534335D01*
X1154210Y1541493D01*
X1164333Y1551616D01*
X1168326Y1558532D01*
X1173326D01*
X1177319Y1551616D01*
X1187442Y1541493D01*
X1199840Y1534335D01*
X1213668Y1530630D01*
X1227984D01*
X1241812Y1534335D01*
X1254210Y1541493D01*
X1264333Y1551616D01*
X1268326Y1558532D01*
X1273326D01*
X1277319Y1551616D01*
X1287442Y1541493D01*
X1299840Y1534335D01*
X1313668Y1530630D01*
X1327984D01*
X1341812Y1534335D01*
X1354210Y1541493D01*
X1364333Y1551616D01*
X1368326Y1558532D01*
X1373326D01*
X1377319Y1551616D01*
X1387442Y1541493D01*
X1399840Y1534335D01*
X1413668Y1530630D01*
X1427984D01*
X1441812Y1534335D01*
X1454210Y1541493D01*
X1464333Y1551616D01*
X1468326Y1558532D01*
X1473326D01*
X1477319Y1551616D01*
X1487442Y1541493D01*
X1499840Y1534335D01*
X1513668Y1530630D01*
X1527984D01*
X1541812Y1534335D01*
X1554210Y1541493D01*
X1564333Y1551616D01*
X1568326Y1558532D01*
X1573326D01*
X1577319Y1551616D01*
D02*
G37*
G36*
X877319D02*
X887442Y1541493D01*
X893089Y1538233D01*
Y1414174D01*
X894034Y1406995D01*
X896805Y1400305D01*
X901213Y1394561D01*
X960387Y1335387D01*
X966131Y1330979D01*
X972821Y1328208D01*
X980000Y1327263D01*
X1918279D01*
X1919990Y1324299D01*
X1929299Y1314990D01*
X1933201Y1312737D01*
X1931861Y1307737D01*
X581489D01*
X353008Y1536218D01*
X353552Y1540348D01*
X354507Y1541790D01*
X364333Y1551616D01*
X368326Y1558532D01*
X373326D01*
X377319Y1551616D01*
X387442Y1541493D01*
X399840Y1534335D01*
X413668Y1530630D01*
X427984D01*
X441812Y1534335D01*
X454210Y1541493D01*
X464333Y1551616D01*
X468326Y1558532D01*
X473326D01*
X477319Y1551616D01*
X487442Y1541493D01*
X499840Y1534335D01*
X513668Y1530630D01*
X527984D01*
X541812Y1534335D01*
X554210Y1541493D01*
X564333Y1551616D01*
X568326Y1558532D01*
X573326D01*
X577319Y1551616D01*
X587442Y1541493D01*
X599840Y1534335D01*
X613668Y1530630D01*
X627984D01*
X641812Y1534335D01*
X654210Y1541493D01*
X664333Y1551616D01*
X668326Y1558532D01*
X673326D01*
X677319Y1551616D01*
X687442Y1541493D01*
X699840Y1534335D01*
X713668Y1530630D01*
X727984D01*
X741812Y1534335D01*
X754210Y1541493D01*
X764333Y1551616D01*
X768326Y1558532D01*
X773326D01*
X777319Y1551616D01*
X787442Y1541493D01*
X799840Y1534335D01*
X813668Y1530630D01*
X827984D01*
X841812Y1534335D01*
X854210Y1541493D01*
X864333Y1551616D01*
X868326Y1558532D01*
X873326D01*
X877319Y1551616D01*
D02*
G37*
D10*
X2723142Y239000D02*
X2729000Y244858D01*
D11*
X2880000Y1647756D02*
Y1755000D01*
X735471Y1770000D02*
X2865000D01*
X2880000Y1755000D01*
X2975000Y1569645D02*
Y1820000D01*
X2945000Y1850000D02*
X2975000Y1820000D01*
X470000Y1850000D02*
X2945000D01*
X420826Y1800826D02*
X470000Y1850000D01*
X420826Y1585000D02*
Y1800826D01*
X720826Y1585000D02*
Y1755355D01*
X735471Y1770000D01*
X1888386Y1938386D02*
X2129500Y2179500D01*
X1564882Y1938386D02*
X1888386D01*
X2805000Y1555000D02*
X2960355D01*
X2780000Y1580000D02*
Y1647756D01*
Y1580000D02*
X2805000Y1555000D01*
X2570000Y2055000D02*
Y2135000D01*
X2304645Y2030000D02*
X2545000D01*
X2570000Y2055000D01*
X2170000Y2250000D02*
X2348000D01*
X2129500Y2209500D02*
X2170000Y2250000D01*
X2129500Y2179500D02*
Y2209500D01*
X2348000Y2250000D02*
X2390000Y2208000D01*
X2960355Y1555000D02*
X2975000Y1569645D01*
X1720826Y585000D02*
X1720826D01*
X322268Y1527732D02*
Y1583558D01*
X570000Y1280000D02*
X3565355D01*
X320826Y1585000D02*
X322268Y1583558D01*
Y1527732D02*
X570000Y1280000D01*
X1855826Y1450000D02*
X2406456D01*
X1720826Y1585000D02*
X1855826Y1450000D01*
X2406456D02*
X2506456Y1350000D01*
X3628000D01*
X3678000Y1300000D01*
X2680000Y1360000D02*
Y1647756D01*
X1081890Y2320000D02*
X1825000D01*
X2565000Y2965000D02*
X2576220Y2953780D01*
X2576916Y2954476D01*
X2290000Y2044645D02*
Y2145000D01*
Y2044645D02*
X2304645Y2030000D01*
X1830000Y3472177D02*
X1877823Y3520000D01*
X2292251D01*
X3565355Y1280000D02*
X3580000Y1265355D01*
Y1195000D02*
Y1265355D01*
X3678000Y1195000D02*
Y1300000D01*
X2606448Y2954476D02*
X2607145Y2953780D01*
X2829842D01*
X2576916Y2954476D02*
X2606448D01*
X2676220Y3426220D02*
X2829842D01*
X2565000Y3315000D02*
X2676220Y3426220D01*
X2320000Y3425000D02*
X2455000D01*
X2565000Y3315000D01*
X2425000Y2810000D02*
X2565524Y2950524D01*
X1830000Y3110000D02*
Y3320000D01*
X1935000Y3425000D01*
X2020000D01*
X1900000Y2925000D02*
Y3285000D01*
X1940000Y3325000D01*
X2020000D01*
X1830000Y3460000D02*
Y3472177D01*
X1805000Y3465000D02*
X1822823D01*
X2306896Y3438104D02*
Y3505355D01*
X2292251Y3520000D02*
X2306896Y3505355D01*
Y3438104D02*
X2320000Y3425000D01*
X1900000Y2925000D02*
X1915000Y2910000D01*
X2345000Y2630000D02*
X2347730Y2627270D01*
X2402730D01*
X2517500Y2512500D01*
X2542500D02*
X2570000Y2485000D01*
X2517500Y2512500D02*
X2542500D01*
X2250000Y2630000D02*
X2345000D01*
X2570000Y2485000D02*
X2667440Y2582440D01*
X3699099Y2345901D02*
X3707620Y2337380D01*
X2751102Y2346220D02*
X2751421Y2345901D01*
X2265000Y2824645D02*
Y2950000D01*
X2279645Y2810000D02*
X2425000D01*
X2265000Y2824645D02*
X2279645Y2810000D01*
X2330000Y3150000D02*
Y3325000D01*
X2115000Y3150000D02*
X2165000Y3100000D01*
X1980000Y3150000D02*
X2115000D01*
X2165000Y2950000D02*
Y3100000D01*
X2353095Y2351905D02*
Y2521905D01*
X2609883Y2110000D02*
X2829842D01*
X2570000Y2135000D02*
X2584883D01*
X2609883Y2110000D01*
X1865000Y2630000D02*
X2045000D01*
X1825000Y2670000D02*
X1865000Y2630000D01*
X2667440Y2582440D02*
X2829842D01*
X2390000Y2145000D02*
Y2208000D01*
X1825000Y2320000D02*
X1947000Y2442000D01*
X2137000D01*
X2195000Y2500000D01*
Y2575000D01*
X2250000Y2630000D01*
X698662Y1936772D02*
X1081890Y2320000D01*
D12*
X2289000Y355000D02*
D03*
X2560000Y543000D02*
D03*
Y355000D02*
D03*
X2289000Y543000D02*
D03*
X3169000Y355000D02*
D03*
X3440000Y543000D02*
D03*
Y355000D02*
D03*
X3169000Y543000D02*
D03*
X2729000D02*
D03*
X3000000Y355000D02*
D03*
Y543000D02*
D03*
X2729000Y355000D02*
D03*
D13*
X1720826Y1585000D02*
D03*
D14*
X1620826D02*
D03*
X1520826D02*
D03*
X1420826D02*
D03*
X1320826D02*
D03*
X1220826D02*
D03*
X1120826D02*
D03*
X1020826D02*
D03*
X920826D02*
D03*
X820826D02*
D03*
X720826D02*
D03*
X620826D02*
D03*
X520826D02*
D03*
X420826D02*
D03*
X320826D02*
D03*
X1720826Y585000D02*
D03*
X1620826D02*
D03*
X1520826D02*
D03*
X1420826D02*
D03*
X1320826D02*
D03*
X1220826D02*
D03*
X1120826D02*
D03*
X1020826D02*
D03*
X920826D02*
D03*
X820826D02*
D03*
X720826D02*
D03*
X620826D02*
D03*
X520826D02*
D03*
X420826D02*
D03*
X320826D02*
D03*
D15*
X185788Y1568464D02*
D03*
Y603504D02*
D03*
X2034212D02*
D03*
Y1568464D02*
D03*
X2296930Y1628070D02*
D03*
X3163070D02*
D03*
Y761930D02*
D03*
X2296930D02*
D03*
D16*
X815000Y2755000D02*
D03*
X820000Y1680000D02*
D03*
X2430000Y1070000D02*
D03*
X1625000D02*
D03*
X1960000Y1355000D02*
D03*
X1840000Y2030000D02*
D03*
X1735000D02*
D03*
X1865000Y1200000D02*
D03*
X1930000Y2270000D02*
D03*
X1935000Y2530000D02*
D03*
X2100000Y2010000D02*
D03*
X2050000Y2220000D02*
D03*
X2650000Y3060000D02*
D03*
Y2840000D02*
D03*
X2465000Y2245000D02*
D03*
X2460000Y2955000D02*
D03*
X2465000Y2440000D02*
D03*
X2468878Y1648878D02*
D03*
X2595000Y1435000D02*
D03*
X2590000Y1070000D02*
D03*
D17*
X1840000Y2145000D02*
D03*
X1815000Y2910000D02*
D03*
D18*
X1940000Y2145000D02*
D03*
X1915000Y2910000D02*
D03*
D19*
X2580000Y1647756D02*
D03*
D20*
X2680000D02*
D03*
X2780000D02*
D03*
X2880000D02*
D03*
D21*
X2565000Y2965000D02*
D03*
X2570000Y2135000D02*
D03*
D22*
X2565000Y3315000D02*
D03*
X2570000Y2485000D02*
D03*
D23*
X3310158Y2582440D02*
D03*
Y2110000D02*
D03*
X2829842D02*
D03*
Y2953780D02*
D03*
X3310158D02*
D03*
Y3426220D02*
D03*
D24*
X2751102Y2346220D02*
D03*
Y3190000D02*
D03*
D25*
X2829842Y2582440D02*
D03*
Y3426220D02*
D03*
D26*
X3479000Y1195000D02*
D03*
X3580000D02*
D03*
X3678000D02*
D03*
D27*
X2190000Y2145000D02*
D03*
X2290000D02*
D03*
X2390000D02*
D03*
X2165000Y2950000D02*
D03*
X2265000D02*
D03*
X2365000D02*
D03*
D28*
X2320000Y3425000D02*
D03*
Y3325000D02*
D03*
X2020000D02*
D03*
X2045000Y2530000D02*
D03*
X2345000D02*
D03*
Y2630000D02*
D03*
D29*
X2020000Y3425000D02*
D03*
X2045000Y2630000D02*
D03*
D30*
X2005000Y2350000D02*
D03*
X2355000D02*
D03*
X1980000Y3150000D02*
D03*
X2330000D02*
D03*
X1830000Y3460000D02*
D03*
Y3110000D02*
D03*
X1825000Y2320000D02*
D03*
Y2670000D02*
D03*
D31*
X265000Y3280000D02*
D03*
Y3480000D02*
D03*
X3665000Y2545000D02*
D03*
X3667620Y2142380D02*
D03*
Y2342380D02*
D03*
X3662380Y3397620D02*
D03*
X3665000Y2995000D02*
D03*
Y3195000D02*
D03*
D32*
X675118Y1938386D02*
D03*
X1564882D02*
D03*
X966456Y3611614D02*
D03*
D33*
X1273544D02*
D03*
D34*
X170000Y165000D02*
D03*
X145000Y3760000D02*
D03*
X3750000D02*
D03*
X3745000Y130000D02*
D03*
D35*
X3680000Y660000D02*
D03*
Y1010000D02*
D03*
D36*
Y660000D02*
D03*
D03*
D37*
X2595000Y1435000D02*
Y1647756D01*
X3169000Y164000D02*
Y355000D01*
X3145000Y140000D02*
X3169000Y164000D01*
X1245000Y140000D02*
X3145000D01*
X1020826Y364174D02*
X1245000Y140000D01*
X1020826Y364174D02*
Y585000D01*
X1335000Y355000D02*
X2289000D01*
X1220826Y469174D02*
X1335000Y355000D01*
X1220826Y469174D02*
Y585000D01*
X2729000Y244858D02*
Y355000D01*
X1286000Y239000D02*
X2723142D01*
X1120826Y404174D02*
X1286000Y239000D01*
X3169000Y355000D02*
X3440000D01*
X2729000D02*
X3000000D01*
X2289000D02*
X2560000D01*
X2590000Y682000D02*
X2729000Y543000D01*
X2590000Y682000D02*
Y1070000D01*
X3479000Y582000D02*
Y1195000D01*
X3440000Y543000D02*
X3479000Y582000D01*
X3000000Y543000D02*
X3440000D01*
X2560000D02*
X3000000D01*
X2289000D02*
X2560000D01*
X1120826Y404174D02*
Y585000D01*
X2457756Y1647756D02*
X2468878Y1648878D01*
X2390000Y2170000D02*
X2465000Y2245000D01*
Y2440000D01*
X2190000Y2050000D02*
Y2145000D01*
X2150000Y2010000D02*
X2190000Y2050000D01*
X2100000Y2010000D02*
X2150000D01*
X815000Y2755000D02*
X1675000D01*
X1822500Y2902500D01*
X820000Y1585826D02*
Y1690000D01*
X1865000Y710000D02*
Y1190000D01*
X1740000Y585000D02*
X1865000Y710000D01*
X2430000Y1070000D02*
X2590000D01*
X1625000Y600000D02*
Y1070000D01*
X980000Y1355000D02*
X1960000D01*
X920826Y1414174D02*
X980000Y1355000D01*
X920826Y1414174D02*
Y1585000D01*
X1840000Y2030000D02*
Y2145000D01*
X1735000Y2030000D02*
Y2230000D01*
X1825000Y2320000D01*
X2650000Y2665000D02*
Y2840000D01*
X1935000Y2530000D02*
X2045000D01*
X1930000Y2270000D02*
X1935000Y2150000D01*
X2006265Y2263735D02*
Y2348735D01*
Y2263735D02*
X2050000Y2220000D01*
X2570000Y2485000D02*
Y2585000D01*
X2650000Y2665000D01*
Y3060000D02*
Y3230000D01*
X2565000Y3315000D02*
X2650000Y3230000D01*
X2365000Y2947047D02*
X2452047D01*
X2457756Y1647756D02*
X2580000D01*
X3580000Y685000D02*
Y1195000D01*
Y685000D02*
X3605000Y660000D01*
X3680000D01*
Y1010000D02*
Y1193000D01*
D38*
X2751102Y3190000D02*
X3707620D01*
X3346378Y2990000D02*
X3707620D01*
X1120158Y3765000D02*
X1273544Y3611614D01*
X550000Y3765000D02*
X1120158D01*
X810000Y3280000D02*
X966456Y3436456D01*
Y3611614D01*
X2751421Y2345901D02*
X3699099D01*
X3317722Y2110000D02*
X3357722Y2150000D01*
X3678764D02*
X3691384Y2137380D01*
X3707620D01*
X3357722Y2150000D02*
X3678764D01*
X3310158Y2110000D02*
X3317722D01*
X265000Y3280000D02*
X810000D01*
X265000Y3480000D02*
X550000Y3765000D01*
X3352598Y2540000D02*
X3705000D01*
X3310158Y2582440D02*
X3352598Y2540000D01*
X3310158Y2953780D02*
X3346378Y2990000D01*
X3343758Y3392620D02*
X3705000D01*
X3310158Y3426220D02*
X3343758Y3392620D01*
%TF.MD5,f1bb4c1960132d5ab8dffb38e1fc4ac1*%
M02*
