%TF.GenerationSoftware,Altium Limited,Altium Designer,23.10.1 (27)*%
G04 Layer_Color=128*
%FSLAX26Y26*%
%MOIN*%
%TF.SameCoordinates,68AA919C-6303-421A-99F6-747A19599157*%
%TF.FilePolarity,Positive*%
%TF.FileFunction,Drillmap*%
%TF.Part,Single*%
G01*
G75*
%TA.AperFunction,NonConductor*%
%ADD45C,0.005000*%
D45*
X2273500Y355000D02*
X2304500D01*
X2289000Y339500D02*
Y370500D01*
X2544500Y543000D02*
X2575500D01*
X2560000Y527500D02*
Y558500D01*
X2544500Y355000D02*
X2575500D01*
X2560000Y339500D02*
Y370500D01*
X2273500Y543000D02*
X2304500D01*
X2289000Y527500D02*
Y558500D01*
X3153500Y355000D02*
X3184500D01*
X3169000Y339500D02*
Y370500D01*
X3424500Y543000D02*
X3455500D01*
X3440000Y527500D02*
Y558500D01*
X3424500Y355000D02*
X3455500D01*
X3440000Y339500D02*
Y370500D01*
X3153500Y543000D02*
X3184500D01*
X3169000Y527500D02*
Y558500D01*
X2713500Y543000D02*
X2744500D01*
X2729000Y527500D02*
Y558500D01*
X2984500Y355000D02*
X3015500D01*
X3000000Y339500D02*
Y370500D01*
X2984500Y543000D02*
X3015500D01*
X3000000Y527500D02*
Y558500D01*
X2713500Y355000D02*
X2744500D01*
X2729000Y339500D02*
Y370500D01*
X1700747Y1585000D02*
X1740905D01*
X1720826Y1564921D02*
Y1605079D01*
X1600747Y1585000D02*
X1640905D01*
X1620826Y1564921D02*
Y1605079D01*
X1500747Y1585000D02*
X1540905D01*
X1520826Y1564921D02*
Y1605079D01*
X1400747Y1585000D02*
X1440905D01*
X1420826Y1564921D02*
Y1605079D01*
X1300747Y1585000D02*
X1340905D01*
X1320826Y1564921D02*
Y1605079D01*
X1200747Y1585000D02*
X1240905D01*
X1220826Y1564921D02*
Y1605079D01*
X1100747Y1585000D02*
X1140905D01*
X1120826Y1564921D02*
Y1605079D01*
X1000747Y1585000D02*
X1040905D01*
X1020826Y1564921D02*
Y1605079D01*
X900747Y1585000D02*
X940905D01*
X920826Y1564921D02*
Y1605079D01*
X800747Y1585000D02*
X840905D01*
X820826Y1564921D02*
Y1605079D01*
X700747Y1585000D02*
X740905D01*
X720826Y1564921D02*
Y1605079D01*
X600747Y1585000D02*
X640905D01*
X620826Y1564921D02*
Y1605079D01*
X500747Y1585000D02*
X540905D01*
X520826Y1564921D02*
Y1605079D01*
X400747Y1585000D02*
X440905D01*
X420826Y1564921D02*
Y1605079D01*
X300747Y1585000D02*
X340905D01*
X320826Y1564921D02*
Y1605079D01*
X1700747Y585000D02*
X1740905D01*
X1720826Y564921D02*
Y605079D01*
X1600747Y585000D02*
X1640905D01*
X1620826Y564921D02*
Y605079D01*
X1500747Y585000D02*
X1540905D01*
X1520826Y564921D02*
Y605079D01*
X1400747Y585000D02*
X1440905D01*
X1420826Y564921D02*
Y605079D01*
X1300747Y585000D02*
X1340905D01*
X1320826Y564921D02*
Y605079D01*
X1200747Y585000D02*
X1240905D01*
X1220826Y564921D02*
Y605079D01*
X1100747Y585000D02*
X1140905D01*
X1120826Y564921D02*
Y605079D01*
X1000747Y585000D02*
X1040905D01*
X1020826Y564921D02*
Y605079D01*
X900747Y585000D02*
X940905D01*
X920826Y564921D02*
Y605079D01*
X800747Y585000D02*
X840905D01*
X820826Y564921D02*
Y605079D01*
X700747Y585000D02*
X740905D01*
X720826Y564921D02*
Y605079D01*
X600747Y585000D02*
X640905D01*
X620826Y564921D02*
Y605079D01*
X500747Y585000D02*
X540905D01*
X520826Y564921D02*
Y605079D01*
X400747Y585000D02*
X440905D01*
X420826Y564921D02*
Y605079D01*
X300747Y585000D02*
X340905D01*
X320826Y564921D02*
Y605079D01*
X126733Y1568464D02*
X244843D01*
X185788Y1509409D02*
Y1627519D01*
X126733Y603504D02*
X244843D01*
X185788Y544449D02*
Y662559D01*
X1975157Y603504D02*
X2093267D01*
X2034212Y544449D02*
Y662559D01*
X1975157Y1568464D02*
X2093267D01*
X2034212Y1509409D02*
Y1627519D01*
X799500Y2755000D02*
X830500D01*
X815000Y2739500D02*
Y2770500D01*
X804500Y1680000D02*
X835500D01*
X820000Y1664500D02*
Y1695500D01*
X2414500Y1070000D02*
X2445500D01*
X2430000Y1054500D02*
Y1085500D01*
X1609500Y1070000D02*
X1640500D01*
X1625000Y1054500D02*
Y1085500D01*
X1944500Y1355000D02*
X1975500D01*
X1960000Y1339500D02*
Y1370500D01*
X1824500Y2030000D02*
X1855500D01*
X1840000Y2014500D02*
Y2045500D01*
X1719500Y2030000D02*
X1750500D01*
X1735000Y2014500D02*
Y2045500D01*
X1849500Y1200000D02*
X1880500D01*
X1865000Y1184500D02*
Y1215500D01*
X1824000Y2145000D02*
X1856000D01*
X1840000Y2129000D02*
Y2161000D01*
X1924000Y2145000D02*
X1956000D01*
X1940000Y2129000D02*
Y2161000D01*
X1914500Y2270000D02*
X1945500D01*
X1930000Y2254500D02*
Y2285500D01*
X1919500Y2530000D02*
X1950500D01*
X1935000Y2514500D02*
Y2545500D01*
X2560315Y1647756D02*
X2599685D01*
X2580000Y1628071D02*
Y1667441D01*
X2660315Y1647756D02*
X2699685D01*
X2680000Y1628071D02*
Y1667441D01*
X2760315Y1647756D02*
X2799685D01*
X2780000Y1628071D02*
Y1667441D01*
X2860315Y1647756D02*
X2899685D01*
X2880000Y1628071D02*
Y1667441D01*
X2257560Y1628070D02*
X2336300D01*
X2296930Y1588700D02*
Y1667440D01*
X3123700Y1628070D02*
X3202440D01*
X3163070Y1588700D02*
Y1667440D01*
X3123700Y761930D02*
X3202440D01*
X3163070Y722560D02*
Y801300D01*
X2257560Y761930D02*
X2336300D01*
X2296930Y722560D02*
Y801300D01*
X2084500Y2010000D02*
X2115500D01*
X2100000Y1994500D02*
Y2025500D01*
X2034500Y2220000D02*
X2065500D01*
X2050000Y2204500D02*
Y2235500D01*
X2547500Y2965000D02*
X2582500D01*
X2565000Y2947500D02*
Y2982500D01*
X2547500Y3315000D02*
X2582500D01*
X2565000Y3297500D02*
Y3332500D01*
X2634500Y3060000D02*
X2665500D01*
X2650000Y3044500D02*
Y3075500D01*
X2634500Y2840000D02*
X2665500D01*
X2650000Y2824500D02*
Y2855500D01*
X2449500Y2245000D02*
X2480500D01*
X2465000Y2229500D02*
Y2260500D01*
X2444500Y2955000D02*
X2475500D01*
X2460000Y2939500D02*
Y2970500D01*
X2449500Y2440000D02*
X2480500D01*
X2465000Y2424500D02*
Y2455500D01*
X2453378Y1648878D02*
X2484378D01*
X2468878Y1633378D02*
Y1664378D01*
X2579500Y1435000D02*
X2610500D01*
X2595000Y1419500D02*
Y1450500D01*
X2574500Y1070000D02*
X2605500D01*
X2590000Y1054500D02*
Y1085500D01*
X3284174Y2582440D02*
X3336142D01*
X3310158Y2556456D02*
Y2608424D01*
X3284174Y2110000D02*
X3336142D01*
X3310158Y2084016D02*
Y2135984D01*
X2803858Y2110000D02*
X2855826D01*
X2829842Y2084016D02*
Y2135984D01*
X2725708Y2346220D02*
X2776496D01*
X2751102Y2320826D02*
Y2371614D01*
X2803858Y2582440D02*
X2855826D01*
X2829842Y2556456D02*
Y2608424D01*
X3461000Y1195000D02*
X3497000D01*
X3479000Y1177000D02*
Y1213000D01*
X3562000Y1195000D02*
X3598000D01*
X3580000Y1177000D02*
Y1213000D01*
X3660000Y1195000D02*
X3696000D01*
X3678000Y1177000D02*
Y1213000D01*
X2803858Y3426220D02*
X2855826D01*
X2829842Y3400236D02*
Y3452204D01*
X2725708Y3190000D02*
X2776496D01*
X2751102Y3164606D02*
Y3215394D01*
X2803858Y2953780D02*
X2855826D01*
X2829842Y2927796D02*
Y2979764D01*
X3284174Y2953780D02*
X3336142D01*
X3310158Y2927796D02*
Y2979764D01*
X3284174Y3426220D02*
X3336142D01*
X3310158Y3400236D02*
Y3452204D01*
X2552500Y2135000D02*
X2587500D01*
X2570000Y2117500D02*
Y2152500D01*
X2552500Y2485000D02*
X2587500D01*
X2570000Y2467500D02*
Y2502500D01*
X2174000Y2145000D02*
X2206000D01*
X2190000Y2129000D02*
Y2161000D01*
X2274000Y2145000D02*
X2306000D01*
X2290000Y2129000D02*
Y2161000D01*
X2374000Y2145000D02*
X2406000D01*
X2390000Y2129000D02*
Y2161000D01*
X2149000Y2950000D02*
X2181000D01*
X2165000Y2934000D02*
Y2966000D01*
X2249000Y2950000D02*
X2281000D01*
X2265000Y2934000D02*
Y2966000D01*
X2349000Y2950000D02*
X2381000D01*
X2365000Y2934000D02*
Y2966000D01*
X2304500Y3425000D02*
X2335500D01*
X2320000Y3409500D02*
Y3440500D01*
X2304500Y3325000D02*
X2335500D01*
X2320000Y3309500D02*
Y3340500D01*
X2004500Y3325000D02*
X2035500D01*
X2020000Y3309500D02*
Y3340500D01*
X2004500Y3425000D02*
X2035500D01*
X2020000Y3409500D02*
Y3440500D01*
X2029500Y2630000D02*
X2060500D01*
X2045000Y2614500D02*
Y2645500D01*
X2029500Y2530000D02*
X2060500D01*
X2045000Y2514500D02*
Y2545500D01*
X2329500Y2530000D02*
X2360500D01*
X2345000Y2514500D02*
Y2545500D01*
X2329500Y2630000D02*
X2360500D01*
X2345000Y2614500D02*
Y2645500D01*
X1989500Y2350000D02*
X2020500D01*
X2005000Y2334500D02*
Y2365500D01*
X2339500Y2350000D02*
X2370500D01*
X2355000Y2334500D02*
Y2365500D01*
X1964500Y3150000D02*
X1995500D01*
X1980000Y3134500D02*
Y3165500D01*
X2314500Y3150000D02*
X2345500D01*
X2330000Y3134500D02*
Y3165500D01*
X1814500Y3460000D02*
X1845500D01*
X1830000Y3444500D02*
Y3475500D01*
X1814500Y3110000D02*
X1845500D01*
X1830000Y3094500D02*
Y3125500D01*
X240000Y3280000D02*
X290000D01*
X265000Y3255000D02*
Y3305000D01*
X240000Y3480000D02*
X290000D01*
X265000Y3455000D02*
Y3505000D01*
X649528Y1938386D02*
X700708D01*
X675118Y1912795D02*
Y1963976D01*
X1539292Y1938386D02*
X1590473D01*
X1564882Y1912795D02*
Y1963976D01*
X940865Y3611614D02*
X992047D01*
X966456Y3586023D02*
Y3637204D01*
X1247954Y3611614D02*
X1299134D01*
X1273544Y3586023D02*
Y3637204D01*
X130630Y165000D02*
X209370D01*
X170000Y125630D02*
Y204370D01*
X105630Y3760000D02*
X184370D01*
X145000Y3720630D02*
Y3799370D01*
X3710630Y3760000D02*
X3789370D01*
X3750000Y3720630D02*
Y3799370D01*
X3705630Y130000D02*
X3784370D01*
X3745000Y90630D02*
Y169370D01*
X1809500Y2320000D02*
X1840500D01*
X1825000Y2304500D02*
Y2335500D01*
X1809500Y2670000D02*
X1840500D01*
X1825000Y2654500D02*
Y2685500D01*
X3640000Y2545000D02*
X3690000D01*
X3665000Y2520000D02*
Y2570000D01*
X3642620Y2142380D02*
X3692620D01*
X3667620Y2117380D02*
Y2167380D01*
X3642620Y2342380D02*
X3692620D01*
X3667620Y2317380D02*
Y2367380D01*
X3637380Y3397620D02*
X3687380D01*
X3662380Y3372620D02*
Y3422620D01*
X3640000Y2995000D02*
X3690000D01*
X3665000Y2970000D02*
Y3020000D01*
X3640000Y3195000D02*
X3690000D01*
X3665000Y3170000D02*
Y3220000D01*
X1899000Y2910000D02*
X1931000D01*
X1915000Y2894000D02*
Y2926000D01*
X1799000Y2910000D02*
X1831000D01*
X1815000Y2894000D02*
Y2926000D01*
X3665000Y660000D02*
X3695000D01*
X3680000Y645000D02*
Y675000D01*
X3666000Y660000D02*
X3694000D01*
X3680000Y646000D02*
Y674000D01*
X3666000Y660000D02*
X3694000D01*
X3680000Y646000D02*
Y674000D01*
X3665000Y1010000D02*
X3695000D01*
X3680000Y995000D02*
Y1025000D01*
%TF.MD5,db75707c763b76f3826fa1bda49a83a2*%
M02*
